<?xml version="1.0" standalone="no"?>
<!DOCTYPE svg PUBLIC "-//W3C//DTD SVG 1.1//EN" "http://www.w3.org/Graphics/SVG/1.1/DTD/svg11.dtd" >
<svg xmlns="http://www.w3.org/2000/svg" xmlns:xlink="http://www.w3.org/1999/xlink" version="1.1">
<metadata>
Created by FontForge 20170731 at Fri Sep 30 20:27:46 2022
 By Aleksey,,,
Copyright (c) ParaType, Inc., 2000. All rights reserved.
</metadata>
<defs>
<font id="ReformaGroteskMediumC" horiz-adv-x="839" >
  <font-face 
    font-family="ReformaGroteskMediumC"
    font-weight="500"
    font-stretch="normal"
    units-per-em="2048"
    panose-1="0 0 6 0 0 0 0 0 0 0"
    ascent="1710"
    descent="-338"
    x-height="1049"
    cap-height="1434"
    bbox="-61 -338 1065 1776"
    underline-thickness="102"
    underline-position="-307"
    unicode-range="U+0020-F6D4"
  />
<missing-glyph horiz-adv-x="477" 
 />
    <glyph glyph-name=".notdef" horiz-adv-x="477" 
 />
    <glyph glyph-name=".null" horiz-adv-x="0" 
 />
    <glyph glyph-name="nonmarkingreturn" horiz-adv-x="682" 
 />
    <glyph glyph-name="space" unicode=" " horiz-adv-x="477" 
 />
    <glyph glyph-name="space" unicode="&#xa0;" horiz-adv-x="477" 
 />
    <glyph glyph-name="exclam" unicode="!" horiz-adv-x="282" 
d="M221 0h-160v246h160v-246zM180 434h-78l-41 821v179h160v-179z" />
    <glyph glyph-name="quotedbl" unicode="&#x22;" horiz-adv-x="466" 
d="M154 946h-58l-35 258v230h129v-230zM371 946h-58l-37 258v230h130v-230z" />
    <glyph glyph-name="numbersign" unicode="#" horiz-adv-x="835" 
d="M469 0h-133l98 506h-143l-98 -506h-134l97 506h-146l29 133h145l49 246h-137l31 133h139l80 416h133l-82 -416h144l82 416h133l-84 -416h153l-28 -133h-154l-49 -246h147l-26 -133h-148zM461 639l49 246h-143l-50 -246h144z" />
    <glyph glyph-name="dollar" unicode="$" horiz-adv-x="581" 
d="M51 477h144v-213q0 -57 8 -78q7 -25 24.5 -38.5t30 -15t33.5 -1.5q40 0 59 21q21 27 21 100v82q0 118 -66 225l-135 213q-50 77 -78 154q-41 108 -41 217v37q0 115 58 190q43 55 112 76v139h135v-137q74 -15 121 -82q22 -32 32.5 -77t11.5 -69t1 -71v-145h-143v167
q0 71 -23 103q-22 29 -65 29q-40 0 -60 -33q-20 -29 -20 -76v-20q0 -75 15.5 -135t56.5 -124l133 -206q35 -54 55.5 -96.5t39.5 -121.5t19 -172v-24q0 -52 -1.5 -82t-14 -76.5t-37.5 -79.5q-49 -66 -123 -75v-138h-133v144q-54 12 -98 53q-25 24 -40.5 55.5t-22 70t-8 65.5
t-1.5 67v178z" />
    <glyph glyph-name="percent" unicode="%" horiz-adv-x="1005" 
d="M401 1151v-135q0 -145 -36 -203q-50 -80 -144 -80q-90 0 -141 80q-18 28 -27 68.5t-10.5 66t-1.5 68.5v135q0 43 1.5 68.5t10.5 66t27 68.5q51 80 141 80q94 0 144 -80q36 -58 36 -203zM283 1243q0 39 -11 57q-13 25 -51 25q-36 0 -49 -25q-12 -21 -12 -57v-319
q0 -37 12 -58q13 -24 49 -24q38 0 51 24q11 18 11 58v319zM350 0h-121l410 1434h123zM965 426v-135q0 -43 -1.5 -68.5t-10.5 -66t-27 -68.5q-16 -28 -52.5 -54t-91.5 -26q-90 0 -141 80q-7 11 -12 22t-9 23.5t-7 21.5t-4.5 23.5t-2.5 21.5t-1.5 24t-0.5 22v23.5v21.5v135
v21.5v23.5t0.5 22t1.5 24t2.5 21.5t4.5 23.5t7 21.5t9 23.5t12 22q51 80 141 80q55 0 91.5 -26t52.5 -54q18 -28 27 -68.5t10.5 -66t1.5 -68.5zM846 518q0 41 -10 57q-13 25 -52 25q-36 0 -49 -25q-12 -21 -12 -57v-319q0 -37 12 -58q13 -24 49 -24q39 0 52 24q10 16 10 58
v319z" />
    <glyph glyph-name="ampersand" unicode="&#x26;" horiz-adv-x="724" 
d="M715 0h-146l-30 70q-26 -34 -61.5 -52t-63.5 -18h-148q-115 0 -168 88q-30 47 -38.5 90.5t-8.5 106.5v184q0 49 19 115q13 40 45 88l80 112l-82 172q-47 92 -47 177v57q0 134 65 199t180 65q113 0 176 -72q62 -72 62 -194v-82q0 -130 -68 -223l-94 -131l154 -332v299h137
v-236q0 -78 -10.5 -141.5t-44.5 -128.5zM463 213l-191 428l-49 -92q-13 -24 -16.5 -51t-3.5 -95v-155q0 -54 24 -78q24 -27 70 -27h84q26 0 49 22t33 48zM307 881l60 106q15 27 21.5 48.5t7.5 34t1 42.5v94q0 56 -18 78q-24 27 -68 27q-52 0 -75 -29q-19 -24 -19 -72v-77
q0 -37 23 -95z" />
    <glyph glyph-name="quotesingle" unicode="'" horiz-adv-x="253" 
d="M156 946h-58l-37 258v230h132v-230z" />
    <glyph glyph-name="parenleft" unicode="(" horiz-adv-x="346" 
d="M326 -174v-154q-117 64 -197 205q-37 67 -50 133t-13 174v758q0 108 13 174t50 133q80 141 197 205v-154q-69 -59 -93 -143q-20 -70 -20 -199v-790q0 -129 20 -199q24 -84 93 -143z" />
    <glyph glyph-name="parenright" unicode=")" horiz-adv-x="346" 
d="M20 -328v154q69 59 93 143q20 70 20 199v790q0 129 -20 199q-24 84 -93 143v154q117 -64 197 -205q37 -67 50.5 -133.5t13.5 -173.5v-758q0 -107 -13.5 -173.5t-50.5 -133.5q-80 -141 -197 -205z" />
    <glyph glyph-name="asterisk" unicode="*" horiz-adv-x="499" 
d="M301 1434l-22 -201l129 98l30 -147l-143 -25l106 -141l-90 -88l-61 182l-64 -182l-88 90l107 139l-144 27l33 145l127 -98l-24 201h104z" />
    <glyph glyph-name="plus" unicode="+" 
d="M481 401h-123v277h-276v123h276v276h123v-276h277v-123h-277v-277z" />
    <glyph glyph-name="comma" unicode="," horiz-adv-x="284" 
d="M135 -270h-74l68 270h-66v246h160v-264z" />
    <glyph glyph-name="hyphen" unicode="-" horiz-adv-x="356" 
d="M20 483v127h316v-127h-316z" />
    <glyph glyph-name="hyphen" unicode="&#xad;" horiz-adv-x="356" 
d="M20 483v127h316v-127h-316z" />
    <glyph glyph-name="period" unicode="." horiz-adv-x="282" 
d="M61 0v246h160v-246h-160z" />
    <glyph glyph-name="slash" unicode="/" horiz-adv-x="651" 
d="M133 -328h-123l508 1762h123z" />
    <glyph glyph-name="zero" unicode="0" horiz-adv-x="622" 
d="M311 -20q-103 0 -164 61q-29 28 -47 65t-24.5 82t-8 70t-1.5 66v755q0 54 1 75.5t6 66.5t19.5 78.5t38.5 64.5q35 44 83.5 67t96.5 23t97 -23t84 -67q24 -31 38.5 -64.5t19.5 -78.5t6 -66.5t1 -75.5v-755q0 -40 -1.5 -66t-8.5 -70t-25 -81.5t-47 -65.5q-61 -61 -164 -61z
M397 258v911q0 62 -14 93q-20 41 -72 41q-51 0 -71 -41q-15 -34 -15 -93v-911q0 -65 17 -94q20 -33 69 -33q50 0 70 33q16 28 16 94z" />
    <glyph glyph-name="one" unicode="1" horiz-adv-x="374" 
d="M303 0h-160v1141q-59 -46 -123 -56v144q47 16 86 55q23 26 41 70.5t23 79.5h133v-1434z" />
    <glyph glyph-name="two" unicode="2" horiz-adv-x="593" 
d="M528 0h-487q-10 228 63 403q29 71 105 193q36 60 74 131q67 126 86 225q14 69 14 178q0 80 -16 111q-20 41 -74 41t-80 -47q-14 -28 -14 -119v-127l-144 2v58q0 121 10 186.5t41 107.5q30 39 83 65t116 26q117 0 180 -82q53 -71 58 -215q6 -172 -41 -314
q-34 -100 -123 -258q-44 -77 -69 -115t-48 -77q-64 -112 -74 -221h340v-152z" />
    <glyph glyph-name="three" unicode="3" horiz-adv-x="579" 
d="M41 471h143v-168q0 -96 17 -127q22 -45 73 -45q56 0 74 45q10 25 10 105v258q0 83 -10 112q-10 28 -25 37.5t-38 9.5h-80v152h74q30 0 51.5 27t21.5 88v225q0 53 -16 80q-22 33 -68 33q-40 0 -63 -31q-17 -27 -17 -88v-150h-139v107q0 124 29 190q57 123 196 123
q134 0 197 -111q41 -70 41 -186v-113q0 -154 -45 -219q-27 -40 -74 -51v-6q48 -18 73 -45.5t38 -69.5q14 -48 14 -108v-219q0 -150 -33 -220q-59 -126 -206 -126q-145 0 -201 126q-37 79 -37 242v123z" />
    <glyph glyph-name="four" unicode="4" horiz-adv-x="651" 
d="M518 0h-160v311h-338v142l347 981h151v-979h103v-144h-103v-311zM358 455v624l-204 -624h204z" />
    <glyph glyph-name="five" unicode="5" horiz-adv-x="595" 
d="M51 416h150v-137q0 -73 22 -109q24 -39 76 -39t70 33q16 32 16 115v387q0 75 -18 108q-24 39 -76 39q-48 0 -78 -37q-18 -26 -18 -63v-43h-123v764h430v-152h-307v-403q3 2 24.5 17.5t28.5 18.5q55 33 114 33q90 0 136 -74q28 -45 37.5 -113.5t9.5 -187.5v-241
q0 -135 -25 -205q-29 -81 -86.5 -114t-120.5 -33q-71 0 -133 35.5t-94 117.5q-14 34 -21 74.5t-9 67.5t-3 77z" />
    <glyph glyph-name="six" unicode="6" horiz-adv-x="610" 
d="M315 -20q-24 0 -48 4.5t-58 18.5t-64 47.5t-49 82.5q-19 52 -24.5 121t-5.5 195v593q0 211 51 301q61 111 190 111q66 0 114 -32t71 -72q17 -29 25.5 -70.5t9.5 -67t1 -67.5v-12v-119h-139v143q0 87 -14 111q-17 35 -66 35q-45 0 -65 -33q-19 -29 -19 -117v-391
q22 32 54 51q48 31 88 31q80 0 125 -60q57 -71 57 -278v-168q0 -139 -27 -211q-55 -147 -207 -147zM307 131q50 0 68 33q14 28 14 110v283q0 78 -16 109q-11 20 -26.5 27t-41.5 7q-42 0 -61 -32t-19 -115v-279q0 -69 17 -104q22 -39 65 -39z" />
    <glyph glyph-name="seven" unicode="7" horiz-adv-x="509" 
d="M262 0h-160q0 234 45 487q58 318 121 525q36 115 99 270h-336v152h458v-123q-28 -95 -77 -289q-89 -358 -119 -631q-27 -254 -31 -391z" />
    <glyph glyph-name="eight" unicode="8" horiz-adv-x="593" 
d="M299 -20q-131 0 -197 100q-51 77 -51 217v219q0 94 23 156q28 72 100 106q-33 14 -57 45q-33 40 -44.5 89t-11.5 128v97q0 168 68 247q62 70 168 70t168 -70q67 -78 67 -247v-97q0 -80 -11 -128.5t-44 -88.5q-24 -31 -57 -45q72 -34 100 -106q23 -62 23 -156v-219
q0 -140 -51 -217q-67 -100 -193 -100zM297 131q54 0 74 41q12 24 12 119v244q0 94 -10 124q-17 56 -76 56t-76 -56q-10 -30 -10 -124v-244q0 -95 12 -119q20 -41 74 -41zM297 846q59 0 76 43q10 23 10 82v217q0 56 -18 84q-21 31 -68 31t-68 -31q-18 -28 -18 -84v-217
q0 -59 10 -82q17 -43 76 -43z" />
    <glyph glyph-name="nine" unicode="9" horiz-adv-x="600" 
d="M285 1454q24 0 48 -5t58 -18.5t64 -47.5t49 -83q19 -52 25 -121.5t6 -193.5v-594q0 -210 -52 -301q-62 -110 -190 -110q-118 0 -178 104q-28 48 -35.5 105.5t-7.5 140.5v90h139v-111q0 -98 14 -133q20 -45 68 -45q41 0 63 33q19 27 19 117v391q-23 -33 -53 -51
q-50 -31 -99 -31q-69 0 -114 59q-58 72 -58 279v168q0 139 27 211q55 147 207 147zM295 1303q-49 0 -68 -37q-16 -27 -16 -107v-282q0 -84 16 -111q20 -33 68 -33q41 0 61 39q19 28 19 115v272q0 76 -17 107q-19 37 -63 37z" />
    <glyph glyph-name="colon" unicode=":" horiz-adv-x="282" 
d="M61 0v246h160v-246h-160zM61 803v246h160v-246h-160z" />
    <glyph glyph-name="semicolon" unicode=";" horiz-adv-x="284" 
d="M63 803v246h160v-246h-160zM135 -270h-74l68 270h-66v246h160v-264z" />
    <glyph glyph-name="less" unicode="&#x3c;" 
d="M758 434v-123l-676 367v57l676 367v-123l-506 -268z" />
    <glyph glyph-name="equal" unicode="=" 
d="M82 813v123h676v-123h-676zM82 512v123h676v-123h-676z" />
    <glyph glyph-name="greater" unicode="&#x3e;" 
d="M82 434v-123l676 367v57l-676 367v-123l506 -268z" />
    <glyph glyph-name="question" unicode="?" horiz-adv-x="499" 
d="M285 410h-119v182q0 28 5.5 55.5t9.5 39.5t19.5 48t18.5 43l62 148q41 98 41 229v27q0 41 -11 78q-17 51 -69 51q-54 0 -72 -49q-12 -35 -12 -119q0 -77 10 -146h-137v191q0 128 51 190q62 76 172 76q57 0 103 -25t71 -63q19 -29 30 -83.5t11 -100.5v-72q0 -109 -43 -213
q-33 -77 -86 -164q-55 -85 -55 -143v-180zM305 0h-160v246h160v-246z" />
    <glyph glyph-name="at" unicode="@" horiz-adv-x="899" 
d="M834 0h-527q-109 0 -170 61q-26 26 -42 55.5t-21.5 62t-6.5 46.5t-1 41v885q0 137 65 207q31 33 77 54.5t95 21.5h311q110 0 172 -82q24 -33 36 -74t12 -125v-637q0 -111 -31 -172q-41 -78 -121 -78h-76q-39 0 -66.5 20.5t-31.5 61.5q-7 -34 -31 -65q-27 -37 -80 -37
q-71 0 -100 73q-14 35 -14 132v536q0 82 20 129q31 70 98 70q38 0 68 -37q28 -35 35 -64v84h121v-747q0 -27 12.5 -37.5t24 -9.5t20.5 6q14 9 23.5 31.5t9.5 44.5v682v18v18.5t-0.5 17t-1.5 17.5t-2.5 15.5t-4 16.5t-6 14t-9 14t-11.5 12q-38 33 -100 33h-246
q-95 0 -131 -82q-19 -43 -19 -146v-780q0 -6 -0.5 -23.5t-0.5 -26t2 -24.5t6.5 -27t13 -24.5t20.5 -25.5q39 -37 105 -37h504v-119zM401 1012v-547q0 -36 7 -64q9 -36 41 -36q31 0 43 41q10 33 10 86v456q0 68 -8 86q-6 14 -18 23.5t-23 9.5q-23 0 -37 -14q-15 -15 -15 -41z
" />
    <glyph glyph-name="A" unicode="A" horiz-adv-x="593" 
d="M580 0h-164l-29 264h-180l-29 -264h-164l181 1434h204zM221 416h152l-74 708l-4 2z" />
    <glyph glyph-name="B" unicode="B" horiz-adv-x="604" 
d="M72 0v1434h245q120 0 185 -78q34 -42 44.5 -98.5t10.5 -133.5v-143q0 -106 -29 -156q-33 -60 -102 -73l-2 -7q90 -26 121 -106q18 -45 18 -156v-204q0 -42 -1 -65.5t-9.5 -59.5t-24.5 -62q-59 -92 -172 -92h-284zM231 152h68q62 0 86 34q18 27 18 99v213q0 102 -20 137
q-30 49 -104 49h-48v-532zM231 831h64q53 0 80 29q24 30 24 113v172q0 76 -26 104q-33 33 -94 33h-48v-451z" />
    <glyph glyph-name="C" unicode="C" horiz-adv-x="604" 
d="M309 131q49 0 68 37q16 29 16 137v236h160v-242q0 -155 -47 -225q-65 -94 -195 -94q-124 0 -192 96q-25 37 -38 92.5t-14 86t-1 87.5v786q0 53 2 85t14.5 75t36.5 76q67 90 200 90q119 0 181 -84q10 -13 17.5 -27.5t13 -30.5t9.5 -29.5t6.5 -32.5t4 -30.5t2 -32t0.5 -28
v-28v-23.5v-158h-152v215q0 81 -22 109q-25 29 -66 29q-40 0 -65 -29q-23 -29 -23 -109v-860q0 -107 17 -137q18 -37 67 -37z" />
    <glyph glyph-name="D" unicode="D" horiz-adv-x="632" 
d="M72 0v1434h247q59 0 105.5 -18t66 -36t31.5 -37q45 -65 45 -233v-823q0 -136 -61 -209q-65 -78 -182 -78h-252zM231 152h68q71 0 96 51q13 30 13 116v803q0 89 -17 119q-23 41 -90 41h-70v-1130z" />
    <glyph glyph-name="E" unicode="E" horiz-adv-x="514" 
d="M72 0v1434h422v-152h-263v-448h168v-152h-168v-530h263v-152h-422z" />
    <glyph glyph-name="F" unicode="F" horiz-adv-x="505" 
d="M231 0h-159v1434h420v-152h-261v-444h160v-152h-160v-686z" />
    <glyph glyph-name="G" unicode="G" horiz-adv-x="614" 
d="M549 748v-748h-80l-8 94h-6q-14 -40 -45 -71q-46 -43 -111 -43q-117 0 -178 77q-34 44 -44.5 97t-10.5 125v895q0 141 65 208q31 33 78.5 52.5t97.5 19.5q113 0 178 -68q33 -34 48.5 -85.5t15.5 -100.5v-225h-152v180q0 90 -20 119q-21 29 -66 29q-44 0 -65 -29
q-21 -30 -21 -123v-885q0 -72 19 -102q21 -33 65 -33q46 0 66 33q22 34 22 108v324h-94v152h246z" />
    <glyph glyph-name="H" unicode="H" horiz-adv-x="634" 
d="M403 698h-172v-698h-159v1434h159v-584h172v584h160v-1434h-160v698z" />
    <glyph glyph-name="I" unicode="I" horiz-adv-x="303" 
d="M72 0v1434h159v-1434h-159z" />
    <glyph glyph-name="J" unicode="J" horiz-adv-x="575" 
d="M504 1434v-1119v-14q0 -51 -1.5 -81t-13 -77.5t-34.5 -79.5q-60 -83 -170 -83q-125 0 -191 83q-10 12 -17.5 25.5t-13 29t-9.5 27.5t-6.5 30.5t-4 28.5t-2 30t-0.5 27.5v28.5v25v273h143v-314q0 -81 17 -108q22 -35 65 -35t64 35q14 27 14 108v1160h160z" />
    <glyph glyph-name="K" unicode="K" horiz-adv-x="624" 
d="M231 0h-159v1434h159v-609l187 609h170l-217 -678l243 -756h-170l-213 692v-692z" />
    <glyph glyph-name="L" unicode="L" horiz-adv-x="505" 
d="M496 0h-424v1434h159v-1282h265v-152z" />
    <glyph glyph-name="M" unicode="M" horiz-adv-x="884" 
d="M502 0h-119l-160 1161h-6l14 -190v-971h-159v1434h245l123 -922h4l123 922h246v-1434h-160v971l15 190h-6z" />
    <glyph glyph-name="N" unicode="N" horiz-adv-x="716" 
d="M432 0l-203 1098l-6 -2l8 -131v-965h-159v1434h227l190 -1065h7l-11 120v945h160v-1434h-213z" />
    <glyph glyph-name="O" unicode="O" horiz-adv-x="618" 
d="M309 -20q-124 0 -190 83q-10 12 -17.5 25.5t-13 29t-9.5 27.5t-6.5 30.5t-4 28.5t-2 30t-0.5 27.5v28.5v25v803v25v28.5t0.5 27.5t2 30t4 28.5t6.5 30.5t9.5 27.5t13 29t17.5 25.5q67 84 190 84q124 0 191 -84q10 -12 17.5 -25.5t13 -29t9.5 -27.5t6.5 -30.5t4 -28.5
t2 -30t0.5 -27.5v-28.5v-25v-803v-25v-28.5t-0.5 -27.5t-2 -30t-4 -28.5t-6.5 -30.5t-9.5 -27.5t-13 -29t-17.5 -25.5q-66 -83 -191 -83zM225 1153v-872q0 -88 13 -111q20 -39 71 -39q53 0 72 39q12 21 12 111v872q0 90 -12 111q-19 39 -72 39q-51 0 -71 -39
q-13 -23 -13 -111z" />
    <glyph glyph-name="P" unicode="P" horiz-adv-x="604" 
d="M231 0h-159v1434h250q127 0 190 -86q51 -69 51 -199v-244q0 -126 -51 -194q-50 -70 -147 -74q-47 -3 -134 8v-645zM231 797h74h8h9.5t9.5 0.5t10 1t9.5 2t10 3.5t8.5 5t8.5 7t7.5 9.5t7 12.5q10 20 10 98v227q0 64 -24 92q-22 27 -76 27h-72v-485z" />
    <glyph glyph-name="Q" unicode="Q" horiz-adv-x="618" 
d="M358 -18v-21q0 -11 7 -18q9 -9 30 -9h107v-139h-150q-58 0 -82 39q-14 25 -14 78v72q-86 15 -137 79q-10 12 -17.5 25.5t-13 29t-9.5 27.5t-6.5 30.5t-4 28.5t-2 30t-0.5 27.5v28.5v25v803v25v28.5t0.5 27.5t2 30t4 28.5t6.5 30.5t9.5 27.5t13 29t17.5 25.5q67 84 190 84
q124 0 191 -84q10 -12 17.5 -25.5t13 -29t9.5 -27.5t6.5 -30.5t4 -28.5t2 -30t0.5 -27.5v-28.5v-25v-803v-25.5v-28.5t-0.5 -27t-2 -30t-4 -28t-6.5 -30t-9.5 -27.5t-13 -29t-17.5 -26.5q-56 -70 -142 -81zM225 1153v-872q0 -88 13 -111q20 -39 71 -39q53 0 72 39
q12 21 12 111v872q0 90 -12 111q-19 39 -72 39q-51 0 -71 -39q-13 -23 -13 -111z" />
    <glyph glyph-name="R" unicode="R" horiz-adv-x="608" 
d="M588 0h-176q-29 59 -29 170v344q0 72 -21 104q-29 41 -86 41h-45v-659h-159v1434h241q135 0 199 -95q45 -66 45 -190v-172q0 -126 -41 -178q-32 -44 -96 -56v-6q43 -14 69 -45q54 -60 54 -182v-307q0 -81 7 -119.5t38 -73.5v-10zM231 811h62q64 0 90 37q20 25 20 110v197
q0 72 -24 98q-27 29 -94 29h-54v-471z" />
    <glyph glyph-name="S" unicode="S" horiz-adv-x="581" 
d="M51 477h144v-213q0 -57 8 -78q7 -25 24.5 -38.5t30 -15t33.5 -1.5q43 0 59 23q21 32 21 104v76q0 118 -66 225l-135 213q-53 86 -78 154q-41 109 -41 217v37q0 115 58 190q65 84 180 84q128 0 188 -88q22 -32 32.5 -77t11.5 -69t1 -71v-145h-143v167q0 71 -23 103
q-22 29 -65 29q-40 0 -60 -33q-20 -29 -20 -76v-20q0 -148 72 -259l133 -206q35 -54 55.5 -96.5t39.5 -121.5t19 -172v-24q0 -52 -1.5 -82t-14 -76t-37.5 -80q-35 -48 -77.5 -62.5t-102.5 -14.5q-111 0 -174 61q-25 24 -40.5 55.5t-22 70t-8 65.5t-1.5 67v178z" />
    <glyph glyph-name="T" unicode="T" horiz-adv-x="557" 
d="M358 0h-159v1282h-189v152h537v-152h-189v-1282z" />
    <glyph glyph-name="U" unicode="U" horiz-adv-x="622" 
d="M68 1434h159v-1160q0 -78 13 -104q20 -39 71 -39q53 0 72 39q12 24 12 104v1160h160v-1119v-25v-28.5t-0.5 -27.5t-2 -30t-4 -28.5t-6.5 -30.5t-9.5 -27.5t-13 -29t-17.5 -25.5q-66 -83 -191 -83q-124 0 -190 83q-10 12 -17.5 25.5t-13 29t-9.5 27.5t-6.5 30.5t-4 28.5
t-2 30t-0.5 27.5v28.5v25v1119z" />
    <glyph glyph-name="V" unicode="V" horiz-adv-x="585" 
d="M375 0h-164l-195 1434h160l111 -969l2 -78h8l2 78l111 969h159z" />
    <glyph glyph-name="W" unicode="W" horiz-adv-x="921" 
d="M741 0h-186l-86 893l-4 125h-8l-4 -125l-86 -893h-187l-160 1434h164l84 -963v-82h11l6 113l84 932h184l84 -932l6 -113h10v82l84 963h164z" />
    <glyph glyph-name="X" unicode="X" horiz-adv-x="638" 
d="M629 0h-176l-123 434l-8 58h-5l-8 -58l-123 -434h-176l230 754l-207 680h176l104 -404l4 -45h5l4 45l104 404h176l-207 -678z" />
    <glyph glyph-name="Y" unicode="Y" horiz-adv-x="610" 
d="M381 0h-152v600l-219 834h164l123 -560l4 -51h8l4 51l123 560h164l-219 -834v-600z" />
    <glyph glyph-name="Z" unicode="Z" horiz-adv-x="528" 
d="M498 0h-467v129l274 1153h-256v152h432v-119l-276 -1163h293v-152z" />
    <glyph glyph-name="bracketleft" unicode="[" horiz-adv-x="419" 
d="M399 -307h-327v1741h327v-146h-182v-1450h182v-145z" />
    <glyph glyph-name="backslash" unicode="\" horiz-adv-x="651" 
d="M518 -328l-508 1762h123l508 -1762h-123z" />
    <glyph glyph-name="bracketright" unicode="]" horiz-adv-x="419" 
d="M20 -307h328v1741h-328v-146h183v-1450h-183v-145z" />
    <glyph glyph-name="asciicircum" unicode="^" horiz-adv-x="663" 
d="M20 864v140l312 399l311 -399v-140l-311 334z" />
    <glyph glyph-name="underscore" unicode="_" horiz-adv-x="675" 
d="M0 678v123h676v-123h-676z" />
    <glyph glyph-name="grave" unicode="`" horiz-adv-x="440" 
d="M328 1135l39 36l-211 312l-119 -115z" />
    <glyph glyph-name="a" unicode="a" horiz-adv-x="487" 
d="M436 0h-110l-19 63q-20 -36 -55 -59q-36 -24 -86 -24q-69 0 -103 51q-32 47 -32 131v153q0 67 15.5 109.5t68.5 97.5q65 65 182 148v190q0 35 -10 55q-14 27 -51 27q-38 0 -52 -27q-10 -20 -10 -55v-166h-139v144q0 35 1.5 55.5t11.5 53t30 57.5q51 65 160 65
q48 0 86 -15t52 -27t21 -23q39 -52 39 -168v-836zM297 524q-97 -83 -115 -129q-12 -36 -12 -102v-86q0 -52 8 -76q11 -27 37 -27q38 0 59 35q23 38 23 88v297z" />
    <glyph glyph-name="b" unicode="b" horiz-adv-x="522" 
d="M201 1434v-449q14 18 30 31q38 28 88 28q85 0 123 -69q29 -49 29 -170v-590q0 -110 -16 -147q-16 -39 -56 -63.5t-98 -24.5q-51 0 -94 32q-34 24 -51 64l-13 -76h-82v1434h140zM332 236v536q0 81 -10 111q-14 35 -50 35q-38 0 -57 -39q-14 -31 -14 -111v-520
q0 -70 12 -98q19 -44 59 -44q41 0 52 33q8 32 8 97z" />
    <glyph glyph-name="c" unicode="c" horiz-adv-x="501" 
d="M461 401v-159q0 -95 -17 -148q-43 -114 -186 -114q-133 0 -182 110q-25 50 -25 162v534q0 45 1 69t7 57.5t19 56.5q21 40 66 70t110 30q135 0 180 -102q23 -52 23 -201v-121h-140v197q0 47 -10 67q-17 29 -53 29t-53 -29q-11 -17 -11 -67v-625q0 -50 13 -76
q16 -30 55 -30q38 0 53 30q11 22 11 78v182h139z" />
    <glyph glyph-name="d" unicode="d" horiz-adv-x="522" 
d="M322 1434h139v-1434h-135v43q-18 -23 -41 -41q-34 -22 -80 -22q-94 0 -133 83q-21 49 -21 132v655q0 80 23 125q38 69 112 69q58 0 97 -26q20 -13 34 -33h5v449zM190 240q0 -90 15 -115q15 -23 43 -23q41 0 57 29q17 33 17 86v547q0 74 -15 110q-20 44 -63 44
q-33 0 -45 -29q-9 -23 -9 -68v-581z" />
    <glyph glyph-name="e" unicode="e" horiz-adv-x="503" 
d="M453 391v-182q0 -105 -37 -160q-48 -69 -156 -69q-105 0 -160 67q-49 59 -49 189v579q0 47 1 68.5t12 57.5t34 63q55 65 154 65t154 -65q23 -27 34 -63t12 -57.5t1 -68.5v-319h-263v-281q0 -61 13 -78q16 -26 53 -26t53 26q13 26 13 80v174h131zM313 614v234q0 51 -14 70
q-15 20 -47 20t-47 -20t-15 -70v-234h123z" />
    <glyph glyph-name="f" unicode="f" horiz-adv-x="339" 
d="M240 0h-140v930h-80v119h78v225q0 65 27 104q41 56 133 56h61v-131h-18q-36 0 -51 -21q-10 -18 -10 -70v-163h77v-119h-77v-930z" />
    <glyph glyph-name="g" unicode="g" horiz-adv-x="522" 
d="M51 -55h139v-43q0 -42 13 -68q15 -31 53 -31t53 27q13 23 13 74v176q-20 -30 -58 -53q-38 -25 -80 -25q-65 0 -104 70q-29 53 -29 141v625v19.5v22.5t0.5 22t2 24.5t4 22.5t7 24.5t10 21.5t13.5 22t18 19q38 33 82 33q48 0 88 -37q21 -18 37 -47h4v57h144v-1040
q0 -100 -6.5 -150.5t-26.5 -80.5q-50 -78 -164 -78q-119 0 -172 69q-41 57 -41 183zM190 254q0 -52 9 -82q12 -43 53 -43q40 0 57 35q13 26 13 74v577q0 56 -13 88q-19 39 -55 39q-39 0 -53 -35q-11 -25 -11 -76v-577z" />
    <glyph glyph-name="h" unicode="h" horiz-adv-x="532" 
d="M471 0h-139v797q0 77 -10 106q-13 33 -50 33q-41 0 -61 -43q-10 -23 -10 -66v-827h-140v1434h140v-437q19 24 47 43q47 29 96 29q70 0 102 -68q25 -52 25 -170v-831z" />
    <glyph glyph-name="i" unicode="i" horiz-adv-x="262" 
d="M201 0h-140v1049h140v-1049zM201 1229h-140v205h140v-205z" />
    <glyph glyph-name="j" unicode="j" horiz-adv-x="262" 
d="M-31 -307v123h49q13 0 22 5.5t13 11t6 18.5t2 17.5v18.5v1162h140v-1131q0 -103 -10 -137q-6 -17 -13 -29q-34 -59 -117 -59h-92zM201 1229h-140v205h140v-205z" />
    <glyph glyph-name="k" unicode="k" horiz-adv-x="481" 
d="M465 0h-141l-119 449h-4v-449h-140v1434h140v-793h6l125 408h143l-158 -514z" />
    <glyph glyph-name="l" unicode="l" horiz-adv-x="262" 
d="M201 0h-140v1434h140v-1434z" />
    <glyph glyph-name="m" unicode="m" horiz-adv-x="798" 
d="M737 0h-139v788q0 87 -8 103q-13 35 -55 35q-39 0 -56 -35q-10 -23 -10 -96v-795h-139v788q0 79 -6 97q-12 41 -54 41q-30 0 -51 -31q-18 -27 -18 -78v-817h-140v1049h129l19 -56q18 29 43 47q39 29 86 29q44 0 80 -31q17 -14 41 -49q25 37 61 55q42 25 88 25
q64 0 99 -51q30 -41 30 -135v-883z" />
    <glyph glyph-name="n" unicode="n" horiz-adv-x="532" 
d="M471 0h-139v801q0 68 -8 92q-4 13 -17.5 25t-36.5 12q-41 0 -57 -37q-12 -24 -12 -70v-823h-140v1049h129l3 -68q21 38 51 57q46 31 98 31q65 0 100 -53q29 -50 29 -189v-827z" />
    <glyph glyph-name="o" unicode="o" horiz-adv-x="520" 
d="M330 846q0 34 -11 59q-18 33 -59 33t-59 -33q-11 -25 -11 -59v-643q0 -35 11 -60q18 -32 59 -32t59 32q11 25 11 60v643zM469 817v-557v-22v-27t-1 -24.5t-2 -27.5l-3.5 -24.5t-6.5 -27t-9.5 -22.5t-12.5 -24q-56 -81 -174 -81t-174 81q-7 11 -12.5 24t-9.5 22.5t-6.5 27
l-3.5 24.5t-2 27.5t-1 24.5v27v22v557v15.5v18t0.5 17.5t1.5 20t2.5 19t4 21t6 19.5t9 20.5t11.5 19q19 30 62 56t112 26t112 -26t62 -56q6 -9 11.5 -19t9 -20.5t6 -19.5t4 -21t2.5 -19t1.5 -20t0.5 -17.5v-18v-15.5z" />
    <glyph glyph-name="p" unicode="p" horiz-adv-x="522" 
d="M201 -307h-140v1356h123l17 -48q12 21 41 43q39 25 80 25q99 0 133 -88q16 -46 16 -147v-629q0 -128 -27 -178q-36 -70 -114 -70q-58 0 -94 33q-26 23 -35 51v-348zM332 840q0 53 -10 73q-13 29 -46 29q-42 0 -61 -37q-14 -25 -14 -78v-594q0 -55 12 -92q20 -57 66 -57
q36 0 45 33q8 40 8 102v621z" />
    <glyph glyph-name="q" unicode="q" horiz-adv-x="514" 
d="M51 825v21v27t1.5 24t3.5 29.5t7 26t11 28.5q42 88 135 88q54 0 94 -31q25 -19 47 -59l19 70h84v-1356h-140v348q-11 -31 -34 -51q-36 -33 -86 -33q-76 0 -113 61q-29 51 -29 179v628zM190 817v-602q0 -57 11 -94q12 -37 43 -37q37 0 55 43q14 31 14 106v570q0 60 -12 92
q-17 47 -57 47q-31 0 -43 -24q-11 -25 -11 -101z" />
    <glyph glyph-name="r" unicode="r" horiz-adv-x="389" 
d="M201 0h-140v1049h140v-76h4q9 42 41 67q36 29 82 29h45v-160h-58q-21 0 -32 -1t-27 -10t-29 -26q-26 -34 -26 -122v-750z" />
    <glyph glyph-name="s" unicode="s" horiz-adv-x="479" 
d="M31 381h139v-168q0 -51 14 -76q17 -26 58 -26q23 0 34.5 6.5t20.5 25.5q12 24 12 90q0 76 -6.5 113.5t-28.5 65.5l-133 172q-4 6 -13 17t-14 18t-12.5 18t-14.5 24t-15 29q-35 71 -35 154q0 56 22 110q17 41 56 72q57 43 133 43q89 0 139 -57q55 -60 55 -207v-76h-127
v119q0 48 -18 70q-20 20 -51 20q-35 0 -53 -27q-17 -28 -17 -69q0 -42 9 -71.5t40 -68.5l146 -184q41 -53 59.5 -111t18.5 -147q0 -115 -31 -176q-27 -56 -74 -80q-44 -24 -108 -24q-46 0 -91 18q-39 17 -73 70q-41 65 -41 180v133z" />
    <glyph glyph-name="t" unicode="t" horiz-adv-x="352" 
d="M332 0h-72q-67 0 -96 16q-36 20 -47 66t-11 86v762h-86v119h86v385h140v-385h86v-119h-86v-740v-11.5v-13.5t0.5 -13t3 -13.5t5.5 -9.5t8.5 -7.5t12.5 -2.5h56v-119z" />
    <glyph glyph-name="u" unicode="u" horiz-adv-x="532" 
d="M61 1049h140v-793q0 -86 6 -106q11 -44 53 -44t59 35q13 26 13 66v842h139v-1049h-129l-2 57q-19 -25 -51 -51q-39 -26 -84 -26q-68 0 -105 51q-39 54 -39 190v828z" />
    <glyph glyph-name="v" unicode="v" horiz-adv-x="450" 
d="M307 0h-166l-127 1049h140l63 -693l4 -94h6l4 94l66 693h139z" />
    <glyph glyph-name="w" unicode="w" horiz-adv-x="647" 
d="M522 0h-145l-53 639l-54 -639h-145l-111 1049h140l49 -658l4 -92l4 -2l49 752h127l49 -752l4 2l4 92l50 658h139z" />
    <glyph glyph-name="x" unicode="x" horiz-adv-x="434" 
d="M217 731l53 318h140l-123 -484l139 -565h-139l-70 369l-70 -369h-139l139 565l-122 484h139z" />
    <glyph glyph-name="y" unicode="y" horiz-adv-x="450" 
d="M47 -301v125q23 -6 64 -6q54 0 69 30q3 5 4.5 11t1.5 14v14t-1.5 18t-2.5 19.5t-4 24t-4 26.5l-154 1074h140l67 -740h6l58 740h139l-125 -1176q-9 -92 -43 -135q-43 -53 -121 -53q-53 0 -94 14z" />
    <glyph glyph-name="z" unicode="z" horiz-adv-x="403" 
d="M373 0h-348v176l225 754h-205v119h328v-185l-226 -745h226v-119z" />
    <glyph glyph-name="braceleft" unicode="{" horiz-adv-x="532" 
d="M61 520v127q67 6 99.5 71t32.5 210v221q0 45 5 84.5t22 88.5t45.5 84t81.5 60.5t124 28.5v-106q-115 -34 -115 -199v-262q0 -79 -16 -146.5t-54.5 -121t-95.5 -72.5v-8q57 -19 95.5 -72.5t54.5 -121t16 -146.5v-263q0 -164 115 -198v-107q-71 3 -124 28.5t-81.5 60.5
t-45.5 84t-22 88.5t-5 84.5v222q0 145 -32.5 209.5t-99.5 70.5z" />
    <glyph glyph-name="bar" unicode="|" horiz-adv-x="266" 
d="M72 0v1434h123v-1434h-123z" />
    <glyph glyph-name="braceright" unicode="}" horiz-adv-x="532" 
d="M471 647v-127q-67 -6 -99 -70.5t-32 -209.5v-222q0 -45 -5 -84.5t-22.5 -88.5t-46 -84t-81.5 -60.5t-124 -28.5v107q115 34 115 198v263q0 79 16 146.5t54.5 121t95.5 72.5v8q-57 19 -95.5 72.5t-54.5 121t-16 146.5v262q0 165 -115 199v106q71 -3 124 -28.5t81.5 -60.5
t46 -84t22.5 -88.5t5 -84.5v-221q0 -145 32 -210t99 -71z" />
    <glyph glyph-name="asciitilde" unicode="~" horiz-adv-x="692" 
d="M39 719l-19 137q45 70 107 109q48 28 100 28q38 0 84 -37l125 -92q41 -30 82 -20q34 9 84 71l33 46l37 -117q-31 -51 -86 -96q-52 -41 -82 -41q-41 0 -68 12q-8 3 -61 39l-109 76q-26 20 -63 22q-44 4 -86 -33q-44 -37 -78 -104z" />
    <glyph glyph-name="sterling" unicode="&#xa3;" horiz-adv-x="643" 
d="M623 0h-562v152h80q51 124 54 268q2 165 -29 278h-135v144h112q-30 210 -30 311q0 171 73 250q31 33 78 54.5t96 21.5q53 0 106 -22t85 -58q37 -43 49 -95t12 -122v-54h-159v78q0 61 -19 88q-23 33 -72 33q-44 0 -67 -39q-23 -38 -23 -129q0 -135 31 -317h225v-144h-202
q26 -100 26 -258q0 -86 -10 -148.5t-41 -139.5h322v-152z" />
    <glyph glyph-name="currency" unicode="&#xa4;" horiz-adv-x="667" 
d="M227 571q0 -45 32.5 -77.5t76.5 -32.5q46 0 78 32t32 78q0 45 -32 77t-78 32q-44 0 -76.5 -32.5t-32.5 -76.5zM616 375l-88 -88l-90 90q-52 -27 -102 -27q-54 0 -105 29l-92 -92l-88 88l92 92q-26 53 -26 106q0 45 26 99l-92 92l88 88l90 -90q54 29 109 29q43 0 102 -27
l88 88l88 -88l-88 -88q26 -48 29 -98q3 -53 -29 -115z" />
    <glyph glyph-name="section" unicode="&#xa7;" horiz-adv-x="561" 
d="M385 367l29 -45q63 -102 63 -232q0 -85 -33 -145q-28 -54 -71 -76q-45 -25 -107 -25q-44 0 -90 21q-47 21 -74 65q-41 64 -41 183v102h144v-125q0 -62 12 -82t47 -20q18 0 25 0.5t16.5 6.5t16.5 19q12 23 12 70q0 40 -1 56.5t-10 44t-28 53.5l-160 211q-40 53 -59 106
q-25 70 -25 121q0 70 21 121q14 41 45 75q38 42 84 62l-35 49q-28 40 -57 98q-27 65 -27 129q0 70 14 107q17 50 49 82q52 55 144 55q89 0 139 -57q26 -30 39.5 -75.5t14.5 -69t1 -62.5v-76h-143v111q0 49 -12 67q-13 19 -43 19q-28 0 -41 -17q-19 -21 -19 -65
q0 -80 47 -142l164 -219q12 -16 25.5 -38.5t31 -77.5t17.5 -109q0 -87 -43 -166q-30 -58 -82 -110zM227 580l72 -101q42 67 51 90q17 43 17 86q0 62 -21 97l-57 86q-47 -30 -70 -66q-24 -38 -24 -98q0 -48 32 -94z" />
    <glyph glyph-name="dieresis" unicode="&#xa8;" horiz-adv-x="440" 
d="M410 1257h-140v177h140v-177zM168 1257h-139v177h139v-177z" />
    <glyph glyph-name="copyright" unicode="&#xa9;" horiz-adv-x="884" 
d="M592 0h-299q-127 0 -189 121q-38 76 -38 229v733q0 154 38 230q62 121 189 121h299q124 0 190 -121q7 -13 12 -26.5t9 -28t7 -26t4.5 -28t2.5 -25.5t1.5 -27t0.5 -23.5v-24.5v-21v-733q0 -159 -37 -229q-26 -50 -73.5 -85.5t-116.5 -35.5zM176 1126v-819q0 -81 25 -135
q18 -35 41 -48t59 -13h283q71 0 100 61q25 55 25 135v819q0 82 -25 134q-32 63 -106 63h-273q-68 0 -104 -63q-25 -45 -25 -134zM616 596v-166q0 -101 -41 -156q-22 -29 -58 -47t-73 -18q-78 0 -129 67q-45 61 -45 183v540q0 103 45 162q50 64 129 64q33 0 66.5 -17
t54.5 -43q49 -59 49 -180v-108h-114v147q0 40 -15 63q-14 23 -43 23q-28 0 -41 -18q-16 -24 -16 -74v-602q0 -48 14 -68q18 -24 47 -24q32 0 46 24q10 20 10 62v186h114z" />
    <glyph glyph-name="guillemotleft" unicode="&#xab;" horiz-adv-x="669" 
d="M350 0h-117l-213 524l213 525h117l-178 -525zM649 0h-117l-213 524l213 525h117l-178 -525z" />
    <glyph glyph-name="logicalnot" unicode="&#xac;" horiz-adv-x="675" 
d="M676 801v-400h-123v277h-553v123h676z" />
    <glyph glyph-name="registered" unicode="&#xae;" horiz-adv-x="884" 
d="M643 223h-129q-18 41 -18 117v252q0 39 -19 63q-15 17 -41 17h-45v-449h-115v987h211q68 0 103 -63q28 -48 28 -125v-127q0 -39 -5.5 -63.5t-26.5 -55.5q-22 -31 -54 -39v-8q34 -20 43 -29q35 -35 35 -125v-213q0 -82 7 -100q7 -17 26 -29v-10zM391 786h49q26 0 41 15
q23 23 23 63v150q0 43 -10 59q-14 23 -41 23h-62v-310zM592 0h-299q-127 0 -189 121q-38 76 -38 229v733q0 154 38 230q62 121 189 121h299q124 0 190 -121q7 -13 12 -26.5t9 -28t7 -26t4.5 -28t2.5 -25.5t1.5 -27t0.5 -23.5v-24.5v-21v-733q0 -159 -37 -229
q-26 -50 -73.5 -85.5t-116.5 -35.5zM176 1126v-819q0 -81 25 -135q18 -35 41 -48t59 -13h283q36 0 59 13t41 48q25 54 25 135v819q0 89 -25 134q-36 63 -106 63h-273q-68 0 -104 -63q-25 -45 -25 -134z" />
    <glyph glyph-name="degree" unicode="&#xb0;" horiz-adv-x="532" 
d="M61 1229q0 86 59.5 145.5t145.5 59.5t145.5 -59.5t59.5 -145.5t-59.5 -145.5t-145.5 -59.5t-145.5 59.5t-59.5 145.5zM152 1229q0 -46 34 -80.5t80 -34.5t80.5 34.5t34.5 80.5t-34.5 80t-80.5 34t-80 -34t-34 -80z" />
    <glyph glyph-name="plusminus" unicode="&#xb1;" 
d="M481 600h-123v277h-276v122h276v277h123v-277h277v-122h-277v-277zM82 334v123h676v-123h-676z" />
    <glyph glyph-name="acute" unicode="&#xb4;" horiz-adv-x="440" 
d="M113 1135l-39 36l211 312l118 -115z" />
    <glyph glyph-name="mu" unicode="&#xb5;" horiz-adv-x="524" 
d="M201 -307h-140v1356h140v-781q0 -75 10 -110q12 -37 45 -37q41 0 55 53q13 47 13 102v773h139v-1049h-111l-16 66q-10 -33 -34.5 -55.5t-49.5 -22.5q-36 0 -51 35v-330z" />
    <glyph glyph-name="mu" unicode="&#x3bc;" horiz-adv-x="524" 
d="M201 -307h-140v1356h140v-781q0 -75 10 -110q12 -37 45 -37q41 0 55 53q13 47 13 102v773h139v-1049h-111l-16 66q-10 -33 -34.5 -55.5t-49.5 -22.5q-36 0 -51 35v-330z" />
    <glyph glyph-name="paragraph" unicode="&#xb6;" horiz-adv-x="757" 
d="M645 -307h-139v1618h-115v-1618h-139v864h-47q-65 0 -107 53q-21 26 -32 60.5t-13 61t-2 71.5v366q0 97 15 150q6 18 15.5 34.5t28.5 36.5t52.5 32t75.5 12h510v-123h-103v-1618zM252 680v631q-20 3 -34 -3.5t-20.5 -16t-10 -26t-3.5 -23v-17.5v-453q0 -16 1.5 -29
t7.5 -31.5t21 -27t38 -4.5z" />
    <glyph glyph-name="guillemotright" unicode="&#xbb;" horiz-adv-x="669" 
d="M319 0l179 524l-179 525h117l213 -525l-213 -524h-117zM20 0l179 524l-179 525h117l213 -525l-213 -524h-117z" />
    <glyph glyph-name="divide" unicode="&#xf7;" 
d="M82 678v123h676v-123h-676zM354 295v205h131v-205h-131zM354 967v204h131v-204h-131z" />
    <glyph glyph-name="dotlessi" unicode="&#x131;" horiz-adv-x="262" 
d="M201 0h-140v1049h140v-1049z" />
    <glyph glyph-name="florin" unicode="&#x192;" horiz-adv-x="522" 
d="M356 186q0 -122 -8 -183t-41 -126q-29 -57 -63 -94.5t-68.5 -52t-58 -19t-51.5 -4.5h-46v156h48q37 0 61 9t41 40q17 33 21 82.5t4 177.5v576h-129v126h129v68q0 63 1.5 100.5t13.5 98.5t36 108q33 63 89 115t126 59l41 4v-155h-31q-28 0 -58 -20t-42 -68
q-15 -52 -15 -207v-103h117v-126h-117v-562z" />
    <glyph glyph-name="dotaccent" unicode="&#x2d9;" horiz-adv-x="440" 
d="M315 1184h-190v250h190v-250z" />
    <glyph glyph-name="Delta" unicode="&#x394;" horiz-adv-x="593" 
d="M580 0h-566l181 1434h204zM203 152h188l-92 972l-4 2z" />
    <glyph glyph-name="Delta" unicode="&#x2206;" horiz-adv-x="593" 
d="M580 0h-566l181 1434h204zM203 152h188l-92 972l-4 2z" />
    <glyph glyph-name="afii10023" unicode="&#x401;" horiz-adv-x="514" 
d="M90 1593v168h146v-168h-146zM324 1593v168h145v-168h-145zM72 0v1434h422v-152h-263v-448h168v-152h-168v-530h263v-152h-422z" />
    <glyph glyph-name="afii10051" unicode="&#x402;" horiz-adv-x="737" 
d="M358 0h-159v1282h-189v152h537v-152h-189v-453q26 23 54 37q64 31 110 31q80 0 119 -68q35 -54 35 -170v-659h-160v604q0 81 -12 105q-18 34 -66 34q-52 0 -80 -38v-705z" />
    <glyph glyph-name="afii10052" unicode="&#x403;" horiz-adv-x="485" 
d="M231 0h-159v1434h405v-152h-246v-1282zM176 1503l-22 49l305 224l71 -152z" />
    <glyph glyph-name="afii10053" unicode="&#x404;" horiz-adv-x="618" 
d="M309 131q49 0 68 37q16 33 16 121v252h160v-242q0 -154 -47 -225q-61 -94 -197 -94q-138 0 -198 94q-20 31 -30.5 75t-12.5 77.5t-2 86.5v815q0 51 2 83t14.5 76t36.5 77q66 90 188 90q128 0 191 -90q24 -35 36 -82t13.5 -77t1.5 -82v-15v-158h-160v215q0 81 -20 109
q-21 29 -62 29q-42 0 -61 -29q-21 -30 -21 -109v-342h230v-151h-230v-383q0 -88 17 -121q19 -37 67 -37z" />
    <glyph glyph-name="afii10054" unicode="&#x405;" horiz-adv-x="581" 
d="M51 477h144v-213q0 -57 8 -78q7 -25 24.5 -38.5t30 -15t33.5 -1.5q43 0 59 23q21 32 21 104v76q0 118 -66 225l-135 213q-53 86 -78 154q-41 109 -41 217v37q0 115 58 190q65 84 180 84q128 0 188 -88q22 -32 32.5 -77t11.5 -69t1 -71v-145h-143v167q0 71 -23 103
q-22 29 -65 29q-40 0 -60 -33q-20 -29 -20 -76v-20q0 -148 72 -259l133 -206q35 -54 55.5 -96.5t39.5 -121.5t19 -172v-24q0 -52 -1.5 -82t-14 -76t-37.5 -80q-35 -48 -77.5 -62.5t-102.5 -14.5q-111 0 -174 61q-25 24 -40.5 55.5t-22 70t-8 65.5t-1.5 67v178z" />
    <glyph glyph-name="afii10055" unicode="&#x406;" horiz-adv-x="303" 
d="M72 0v1434h159v-1434h-159z" />
    <glyph glyph-name="afii10056" unicode="&#x407;" horiz-adv-x="419" 
d="M129 0v1434h160v-1434h-160zM20 1593v168h146v-168h-146zM254 1593v168h145v-168h-145z" />
    <glyph glyph-name="afii10057" unicode="&#x408;" horiz-adv-x="575" 
d="M504 1434v-1119v-14q0 -51 -1.5 -81t-13 -77.5t-34.5 -79.5q-60 -83 -170 -83q-125 0 -191 83q-10 12 -17.5 25.5t-13 29t-9.5 27.5t-6.5 30.5t-4 28.5t-2 30t-0.5 27.5v28.5v25v273h143v-314q0 -81 17 -108q22 -35 65 -35t64 35q14 27 14 108v1160h160z" />
    <glyph glyph-name="afii10058" unicode="&#x409;" horiz-adv-x="940" 
d="M555 0h-160v1282h-102v-342q0 -90 -9 -262t-16 -240q-20 -182 -55 -276q-19 -53 -42.5 -88t-48.5 -50t-43.5 -19.5t-41.5 -4.5h-21v152q41 25 62 69q38 74 59 334q17 203 17 442v437h241h160v-611h66q105 0 178 -65q47 -42 68.5 -105.5t21.5 -169.5v-170q0 -172 -62 -245
q-26 -31 -59 -47t-55.5 -18.5t-57.5 -2.5h-100zM555 672v-520h57q60 0 86 26q29 29 29 107v194q0 110 -29 150q-32 43 -100 43h-43z" />
    <glyph glyph-name="afii10059" unicode="&#x40a;" horiz-adv-x="950" 
d="M72 0v1434h159v-584h175v584h159v-584h66q104 0 178 -66q47 -42 68.5 -105t21.5 -169v-197q0 -174 -61 -245q-26 -31 -59 -47t-55.5 -18.5t-57.5 -2.5h-260v698h-175v-698h-159zM565 698v-546h58q60 0 86 26q28 28 28 107v221q0 111 -28 149q-32 43 -101 43h-43z" />
    <glyph glyph-name="afii10060" unicode="&#x40b;" horiz-adv-x="718" 
d="M358 0h-159v1282h-189v152h537v-152h-189v-455q24 21 56 39q64 31 110 31q80 0 119 -68q35 -54 35 -170v-428q0 -107 -8 -141q-10 -41 -37 -70q-28 -31 -66.5 -38t-93.5 2q-29 3 -53 10v137q54 -16 76 0q4 3 7.5 7t5.5 10t3.5 11.5t2.5 14t2 14t1 15v14v14.5v13v360
q0 81 -12 105q-18 34 -66 34q-52 0 -82 -41v-702z" />
    <glyph glyph-name="afii10061" unicode="&#x40c;" horiz-adv-x="612" 
d="M418 0q-27 53 -27 106v426v14v15.5t-0.5 14.5t-1.5 16t-3 14t-4.5 15.5t-7 12.5t-9.5 13q-29 29 -76 29h-58v-676h-159v1434h159v-607h54q35 0 56 27t21 64v350q0 111 62 147q33 19 104 19h52v-164l-31 -2q-35 -4 -35 -58v-311q0 -89 -78 -133v-8q55 -15 86 -64
q14 -24 21 -56t7.5 -48.5t0.5 -54.5v-363q0 -58 10 -100q12 -35 31 -66v-6h-174zM217 1503l-22 49l305 224l71 -152z" />
    <glyph glyph-name="afii10062" unicode="&#x40e;" horiz-adv-x="610" 
d="M31 0v152q48 -15 86.5 -10.5t61.5 17t38 31.5q18 23 23.5 53t3.5 47.5t-8 47.5l-216 1096h175l112 -732l10 -96h5l4 96l94 732h170l-187 -1166q-24 -161 -96 -223q-28 -25 -70 -40t-83 -15q-66 0 -123 10zM492 1679q0 -90 -56 -141q-52 -49 -133 -49t-133 49
q-55 50 -55 141h123q0 -40 8 -53q6 -14 22.5 -24.5t34.5 -10.5t34.5 10.5t22.5 24.5q9 15 9 53h123z" />
    <glyph glyph-name="afii10145" unicode="&#x40f;" horiz-adv-x="634" 
d="M563 0h-174v-266h-143v266h-174v1434h159v-1282h172v1282h160v-1434z" />
    <glyph glyph-name="afii10017" unicode="&#x410;" horiz-adv-x="593" 
d="M580 0h-164l-29 264h-180l-29 -264h-164l181 1434h204zM221 416h152l-74 708l-4 2z" />
    <glyph glyph-name="afii10018" unicode="&#x411;" horiz-adv-x="608" 
d="M72 0v1434h454v-152h-295v-451h68q28 0 55 -5t62.5 -19t66 -45.5t49.5 -77.5q33 -81 33 -231v-131q0 -170 -55 -244q-56 -78 -164 -78h-274zM231 152h68q56 0 78 26q22 28 22 109v209q0 92 -14 127q-22 57 -88 57h-66v-528z" />
    <glyph glyph-name="afii10019" unicode="&#x412;" horiz-adv-x="604" 
d="M72 0v1434h245q120 0 185 -78q34 -42 44.5 -98.5t10.5 -133.5v-143q0 -106 -29 -156q-33 -60 -102 -73l-2 -7q90 -26 121 -106q18 -45 18 -156v-204q0 -42 -1 -65.5t-9.5 -59.5t-24.5 -62q-59 -92 -172 -92h-284zM231 152h68q62 0 86 34q18 27 18 99v213q0 102 -20 137
q-30 49 -104 49h-48v-532zM231 831h64q53 0 80 29q24 30 24 113v172q0 76 -26 104q-33 33 -94 33h-48v-451z" />
    <glyph glyph-name="afii10020" unicode="&#x413;" horiz-adv-x="485" 
d="M231 0h-159v1434h405v-152h-246v-1282z" />
    <glyph glyph-name="afii10021" unicode="&#x414;" horiz-adv-x="720" 
d="M713 -266h-144v266h-417v-266h-144v418h80q62 223 88 444q25 195 25 472v30l2 336h411v-1282h99v-418zM248 152h207v1130h-111v-311q0 -190 -29 -432q-25 -208 -67 -387z" />
    <glyph glyph-name="afii10022" unicode="&#x415;" horiz-adv-x="514" 
d="M72 0v1434h422v-152h-263v-448h168v-152h-168v-530h263v-152h-422z" />
    <glyph glyph-name="afii10024" unicode="&#x416;" horiz-adv-x="927" 
d="M733 0q-26 51 -26 106v426q0 5 0.5 20t0 20.5t-1.5 18t-4 20t-8.5 17.5t-13.5 19q-27 29 -76 29h-57v-676h-166v676h-57q-49 0 -76 -29q-8 -9 -13.5 -19t-8.5 -17.5t-4 -20t-1.5 -18t0 -20.5t0.5 -20v-426q0 -55 -26 -106h-175v6q19 31 31 66q10 42 10 100v377
q0 114 29 153q27 39 86 56v8q-78 44 -78 133v311q0 54 -35 58l-30 2v164h51q71 0 104 -19q62 -37 62 -147v-350q0 -37 21.5 -64t56.5 -27h53v607h166v-607h53q35 0 56.5 27t21.5 64v350q0 111 61 147q33 19 105 19h51v-164l-31 -2q-35 -2 -35 -58v-311q0 -90 -77 -133v-8
q59 -17 86 -56q13 -18 20 -48t7.5 -48.5t0.5 -56.5v-377q0 -54 11 -100q13 -39 30 -66v-6h-174z" />
    <glyph glyph-name="afii10025" unicode="&#x417;" horiz-adv-x="593" 
d="M51 557h160v-287q0 -76 12 -100q19 -39 74 -39q54 0 72 39q14 31 14 100v244q0 93 -18 123q-31 50 -117 45l-111 -6v153h131q23 0 37 2.5t30 15.5t25 38q15 43 15 102v209q0 45 -15 72q-20 35 -65 35t-64 -31q-16 -16 -16 -88v-230h-160v203q0 149 58 219
q31 37 79.5 57.5t102.5 20.5q114 0 178 -80q62 -76 62 -217v-162q0 -99 -29 -151q-28 -55 -100 -78v-6q55 -17 92 -66q29 -38 37 -78t8 -98v-194q0 -173 -43 -244q-59 -100 -203 -100q-129 0 -195 92q-51 75 -51 229v256z" />
    <glyph glyph-name="afii10026" unicode="&#x418;" horiz-adv-x="634" 
d="M563 0h-160v725l11 100l-183 -551v-274h-159v1434h159v-680l-10 -105l182 551v234h160v-1434z" />
    <glyph glyph-name="afii10027" unicode="&#x419;" horiz-adv-x="634" 
d="M563 0h-160v725l11 100l-183 -551v-274h-159v1434h159v-680l-10 -105l182 551v234h160v-1434zM506 1679q0 -91 -55 -141q-52 -49 -134 -49q-81 0 -133 49q-55 50 -55 141h123q0 -37 8 -53q13 -35 57 -35q45 0 58 35q8 16 8 53h123z" />
    <glyph glyph-name="afii10028" unicode="&#x41a;" horiz-adv-x="612" 
d="M418 0q-27 53 -27 106v426v14v15.5t-0.5 14.5t-1.5 16t-3 14t-4.5 15.5t-7 12.5t-9.5 13q-29 29 -76 29h-58v-676h-159v1434h159v-607h54q35 0 56 27t21 64v350q0 111 62 147q33 19 104 19h52v-164l-31 -2q-35 -4 -35 -58v-311q0 -89 -78 -133v-8q55 -15 86 -64
q14 -24 21 -56t7.5 -48.5t0.5 -54.5v-363q0 -58 10 -100q12 -35 31 -66v-6h-174z" />
    <glyph glyph-name="afii10029" unicode="&#x41b;" horiz-adv-x="626" 
d="M555 0h-160v1282h-102v-342q0 -90 -9 -262t-16 -240q-20 -182 -55 -276q-19 -53 -42.5 -88t-48.5 -50t-43.5 -19.5t-41.5 -4.5h-21v152q41 25 62 69q38 74 59 334q17 203 17 442v437h401v-1434z" />
    <glyph glyph-name="afii10030" unicode="&#x41c;" horiz-adv-x="884" 
d="M502 0h-119l-160 1161h-6l14 -190v-971h-159v1434h245l123 -922h4l123 922h246v-1434h-160v971l15 190h-6z" />
    <glyph glyph-name="afii10031" unicode="&#x41d;" horiz-adv-x="634" 
d="M403 698h-172v-698h-159v1434h159v-584h172v584h160v-1434h-160v698z" />
    <glyph glyph-name="afii10032" unicode="&#x41e;" horiz-adv-x="618" 
d="M309 -20q-124 0 -190 83q-10 12 -17.5 25.5t-13 29t-9.5 27.5t-6.5 30.5t-4 28.5t-2 30t-0.5 27.5v28.5v25v803v25v28.5t0.5 27.5t2 30t4 28.5t6.5 30.5t9.5 27.5t13 29t17.5 25.5q67 84 190 84q124 0 191 -84q10 -12 17.5 -25.5t13 -29t9.5 -27.5t6.5 -30.5t4 -28.5
t2 -30t0.5 -27.5v-28.5v-25v-803v-25v-28.5t-0.5 -27.5t-2 -30t-4 -28.5t-6.5 -30.5t-9.5 -27.5t-13 -29t-17.5 -25.5q-66 -83 -191 -83zM225 1153v-872q0 -88 13 -111q20 -39 71 -39q53 0 72 39q12 21 12 111v872q0 90 -12 111q-19 39 -72 39q-51 0 -71 -39
q-13 -23 -13 -111z" />
    <glyph glyph-name="afii10033" unicode="&#x41f;" horiz-adv-x="634" 
d="M563 0h-160v1282h-172v-1282h-159v1434h491v-1434z" />
    <glyph glyph-name="afii10034" unicode="&#x420;" horiz-adv-x="604" 
d="M231 0h-159v1434h250q127 0 190 -86q51 -69 51 -199v-244q0 -126 -51 -194q-50 -70 -147 -74q-47 -3 -134 8v-645zM231 797h74h8h9.5t9.5 0.5t10 1t9.5 2t10 3.5t8.5 5t8.5 7t7.5 9.5t7 12.5q10 20 10 98v227q0 64 -24 92q-22 27 -76 27h-72v-485z" />
    <glyph glyph-name="afii10035" unicode="&#x421;" horiz-adv-x="604" 
d="M309 131q49 0 68 37q16 29 16 137v236h160v-242q0 -155 -47 -225q-65 -94 -195 -94q-124 0 -192 96q-25 37 -38 92.5t-14 86t-1 87.5v786q0 53 2 85t14.5 75t36.5 76q67 90 200 90q119 0 181 -84q10 -13 17.5 -27.5t13 -30.5t9.5 -29.5t6.5 -32.5t4 -30.5t2 -32t0.5 -28
v-28v-23.5v-158h-152v215q0 81 -22 109q-25 29 -66 29q-40 0 -65 -29q-23 -29 -23 -109v-860q0 -107 17 -137q18 -37 67 -37z" />
    <glyph glyph-name="afii10036" unicode="&#x422;" horiz-adv-x="557" 
d="M358 0h-159v1282h-189v152h537v-152h-189v-1282z" />
    <glyph glyph-name="afii10037" unicode="&#x423;" horiz-adv-x="610" 
d="M31 0v152q48 -15 86.5 -10.5t61.5 17t38 31.5q18 23 23.5 53t3.5 47.5t-8 47.5l-216 1096h175l112 -732l10 -96h5l4 96l94 732h170l-187 -1166q-24 -161 -96 -223q-28 -25 -70 -40t-83 -15q-66 0 -123 10z" />
    <glyph glyph-name="afii10038" unicode="&#x424;" horiz-adv-x="897" 
d="M528 0h-159v158h-31q-140 0 -223 110q-32 42 -48 92.5t-18 84.5t-2 98v4.5v3.5v4v4v336q0 118 18.5 188.5t67.5 118.5q38 36 92.5 59t114.5 23h29v150h159v-150h29q60 0 114.5 -23t92.5 -59q49 -48 67.5 -118.5t18.5 -188.5v-336q0 -115 -13.5 -175.5t-54.5 -115.5
q-86 -110 -223 -110h-31v-158zM528 309h31q71 0 107 70q24 46 24 162v385v17.5v20.5t-0.5 19.5t-2 21.5t-3.5 20t-5.5 21.5t-8.5 18.5t-11 18q-40 50 -106 50h-25v-824zM369 309v824h-25q-32 0 -61 -14.5t-45 -35.5q-6 -8 -11 -18t-8.5 -18t-5.5 -21t-3.5 -20.5t-2 -22
t-0.5 -19.5v-20.5v-17.5v-394q0 -99 24 -153q36 -70 107 -70h31z" />
    <glyph glyph-name="afii10039" unicode="&#x425;" horiz-adv-x="638" 
d="M629 0h-176l-123 434l-8 58h-5l-8 -58l-123 -434h-176l230 754l-207 680h176l104 -404l4 -45h5l4 45l104 404h176l-207 -678z" />
    <glyph glyph-name="afii10040" unicode="&#x426;" horiz-adv-x="663" 
d="M653 -266h-143v266h-438v1434h159v-1282h160v1282h160v-1282h102v-418z" />
    <glyph glyph-name="afii10041" unicode="&#x427;" horiz-adv-x="610" 
d="M539 0h-160v623h-117q-59 0 -101 12.5t-71 52.5q-22 30 -30.5 76.5t-8.5 126.5v543h160v-533q0 -81 10 -98q10 -18 25 -23.5t41 -5.5h92v660h160v-1434z" />
    <glyph glyph-name="afii10042" unicode="&#x428;" horiz-adv-x="925" 
d="M854 0h-782v1434h159v-1282h152v1282h160v-1282h151v1282h160v-1434z" />
    <glyph glyph-name="afii10043" unicode="&#x429;" horiz-adv-x="970" 
d="M963 -266h-144v264h-747v1436h159v-1284h152v1284h160v-1284h151v1284h160v-1284h109v-416z" />
    <glyph glyph-name="afii10044" unicode="&#x42a;" horiz-adv-x="741" 
d="M197 0v1282h-187v152h346v-611h66q105 0 178 -65q47 -42 68.5 -105.5t21.5 -169.5v-170q0 -170 -61 -245q-25 -31 -58.5 -47t-56.5 -18.5t-57 -2.5h-260zM356 672v-520h62q64 0 90 34q20 30 20 111v182q0 114 -28 150q-12 17 -39 30t-62 13h-43z" />
    <glyph glyph-name="afii10045" unicode="&#x42b;" horiz-adv-x="845" 
d="M614 0v1434h160v-1434h-160zM72 0v1434h159v-611h66q105 0 178 -65q47 -42 68.5 -105.5t21.5 -169.5v-170q0 -167 -63 -245q-25 -31 -56.5 -47t-54 -18.5t-59.5 -2.5h-260zM231 672v-520h58q21 0 34 1.5t29.5 9.5t28.5 23q22 29 22 115v178q0 114 -28 150q-12 17 -39 30
t-62 13h-43z" />
    <glyph glyph-name="afii10046" unicode="&#x42c;" horiz-adv-x="616" 
d="M72 0v1434h159v-611h66q105 0 178 -65q47 -42 68.5 -105.5t21.5 -169.5v-170q0 -174 -61 -245q-26 -31 -59 -47t-55.5 -18.5t-57.5 -2.5h-260zM231 672v-520h58q60 0 86 26q28 28 28 107v194q0 112 -28 150q-32 43 -101 43h-43z" />
    <glyph glyph-name="afii10047" unicode="&#x42d;" horiz-adv-x="604" 
d="M295 131q48 0 67 37q17 35 17 121v383h-229v151h229v342q0 79 -21 109q-19 29 -61 29q-40 0 -61 -29t-21 -109v-215h-160v158q0 116 12 166q12 51 39 90q63 90 191 90q122 0 188 -90q34 -47 44 -103t10 -133v-815q0 -53 -2 -86.5t-12.5 -77.5t-30.5 -75q-60 -94 -199 -94
q-136 0 -197 94q-47 71 -47 225v242h160v-252q0 -90 16 -121q19 -37 68 -37z" />
    <glyph glyph-name="afii10048" unicode="&#x42e;" horiz-adv-x="890" 
d="M338 842v276v25v28.5t0.5 27.5t2 30t4 28.5t6.5 30.5t9.5 27.5t13 29t17.5 25.5q67 84 191 84q123 0 190 -84q10 -12 17.5 -25.5t13 -29t9.5 -27.5t6.5 -30.5t4 -28.5t2 -30t0.5 -27.5v-28.5v-25v-803v-25v-28.5t-0.5 -27.5t-2 -30t-4 -28.5t-6.5 -30.5t-9.5 -27.5
t-13 -29t-17.5 -25.5q-66 -83 -190 -83q-125 0 -191 83q-10 12 -17.5 25.5t-13 29t-9.5 27.5t-6.5 30.5t-4 28.5t-2 30t-0.5 27.5v28.5v25v375h-107v-690h-159v1434h159v-592h107zM498 1159v-885q0 -80 12 -104q20 -39 72 -39t71 39q13 26 13 104v885q0 79 -13 105
q-19 39 -71 39t-72 -39q-12 -24 -12 -105z" />
    <glyph glyph-name="afii10049" unicode="&#x42f;" horiz-adv-x="608" 
d="M20 0v10q31 35 38.5 74t7.5 119v307q0 125 55 182q30 30 74 43v8q-65 10 -101 60q-21 27 -31 70.5t-11 66.5t-1 66v155q0 122 45 182q30 41 77.5 62.5t80.5 25t82 3.5h201v-1434h-160v659h-41q-68 0 -92 -34q-19 -27 -19 -117v-338q0 -113 -28 -170h-177zM377 811v471
h-37q-35 0 -58.5 -6t-45.5 -27q-15 -15 -22.5 -34.5t-8 -30t-0.5 -37.5v-164q0 -106 33 -139q36 -33 108 -33h31z" />
    <glyph glyph-name="afii10065" unicode="&#x430;" horiz-adv-x="487" 
d="M436 0h-110l-19 63q-20 -36 -55 -59q-36 -24 -86 -24q-69 0 -103 51q-32 47 -32 131v153q0 67 15.5 109.5t68.5 97.5q65 65 182 148v190q0 35 -10 55q-14 27 -51 27q-38 0 -52 -27q-10 -20 -10 -55v-166h-139v144q0 35 1.5 55.5t11.5 53t30 57.5q51 65 160 65
q48 0 86 -15t52 -27t21 -23q39 -52 39 -168v-836zM297 524q-97 -83 -115 -129q-12 -36 -12 -102v-86q0 -52 8 -76q11 -27 37 -27q38 0 59 35q23 38 23 88v297z" />
    <glyph glyph-name="afii10066" unicode="&#x431;" horiz-adv-x="520" 
d="M127 942h4q6 57 43.5 92t91.5 35q51 0 96 -21t72 -61q10 -16 17.5 -34.5t11 -32.5t5 -36t2 -32.5t0 -34t-0.5 -29.5v-528q0 -6 0.5 -29.5t0 -34.5t-2 -32.5t-5 -36t-11 -33t-17.5 -33.5q-56 -81 -174 -81t-174 81q-10 15 -17.5 33.5t-11 33t-5 36t-2 32.5t0 34.5
t0.5 29.5v746q0 95 19 163q18 58 50.5 90.5t61.5 43.5l90 36q18 7 26 11t19.5 13t16 22.5t4.5 33.5v15h119v-43q0 -18 -1 -31t-7 -36t-17.5 -40t-34.5 -35t-55 -30l-115 -43q-100 -38 -100 -158v-76zM330 846q0 34 -11 59q-18 33 -59 33t-59 -33q-11 -25 -11 -59v-643
q0 -35 11 -60q18 -32 59 -32t59 32q11 25 11 60v643z" />
    <glyph glyph-name="afii10067" unicode="&#x432;" horiz-adv-x="507" 
d="M61 0v1049h228q96 0 141 -82q29 -52 29 -129v-78q0 -87 -29 -135q-29 -44 -76 -58q59 -25 84 -67q29 -44 29 -146v-131q0 -98 -35 -149q-30 -44 -72.5 -59t-105.5 -15h-193zM201 119h45q43 0 63 22q19 21 19 88v164q0 58 -21 86q-12 15 -27 22.5t-22.5 8t-26.5 0.5h-30
v-391zM201 629h45q43 0 59 20q17 21 17 60v135q0 43 -19 65q-8 8 -25 14.5t-30 6.5h-47v-301z" />
    <glyph glyph-name="afii10068" unicode="&#x433;" horiz-adv-x="417" 
d="M201 0h-140v1049h336v-119h-196v-930z" />
    <glyph glyph-name="afii10069" unicode="&#x434;" horiz-adv-x="552" 
d="M10 119h58q34 96 53 233q22 180 22 441v256h332v-930h68v-344h-123v225h-287v-225h-123v344zM336 119v815h-82v-299q0 -135 -16 -279q-11 -107 -48 -237h146z" />
    <glyph glyph-name="afii10070" unicode="&#x435;" horiz-adv-x="503" 
d="M453 391v-182q0 -105 -37 -160q-48 -69 -156 -69q-105 0 -160 67q-49 59 -49 189v579q0 47 1 68.5t12 57.5t34 63q55 65 154 65t154 -65q23 -27 34 -63t12 -57.5t1 -68.5v-319h-263v-281q0 -61 13 -78q16 -26 53 -26t53 26q13 26 13 80v174h131zM313 614v234q0 51 -14 70
q-15 20 -47 20t-47 -20t-15 -70v-234h123z" />
    <glyph glyph-name="afii10072" unicode="&#x436;" horiz-adv-x="753" 
d="M141 557q-34 10 -49 35q-20 30 -20 76v213v8v8.5t-0.5 7t-1.5 6.5l-2.5 5t-4.5 4.5t-7 2.5t-9 1h-20v123h53q59 0 86 -17q9 -6 16 -11.5t11.5 -12.5t7 -11t3.5 -13.5t1 -12.5v-15.5v-15.5v-254q0 -66 41 -66h61v431h139v-431h62q41 0 41 66v254q0 18 0.5 27t4 22.5
t12 23.5t22.5 19q27 17 86 17h53v-123h-20q-6 0 -10.5 -1t-7 -4t-4.5 -4.5t-2.5 -7t-0.5 -7.5v-9.5v-9.5v-213q0 -46 -20 -76q-15 -25 -50 -35v-6q43 -22 60 -43q37 -43 37 -139v-273q0 -48 24 -90v-6h-147q-17 60 -17 102v273v10v11.5t-0.5 11.5t-1 13.5t-2 13t-3.5 13.5
t-5 11.5t-7 12t-9 9.5q-24 19 -64 19h-31v-500h-139v500h-31q-39 0 -63 -19q-29 -25 -29 -106v-273q0 -46 -16 -102h-148v6q25 44 25 90v273q0 96 37 139q17 22 59 43v6z" />
    <glyph glyph-name="afii10073" unicode="&#x437;" horiz-adv-x="489" 
d="M438 741q0 -68 -20 -118q-25 -52 -84 -70v-6q58 -26 86 -72q29 -48 29 -151v-111q0 -97 -35 -150q-53 -83 -174 -83q-100 0 -156 61q-53 58 -53 170v174h139v-158q0 -63 14 -88q16 -28 56 -28q44 0 57 28q12 20 12 88v117q0 65 -20 96q-27 41 -101 41h-65v119h86
q96 0 96 102v152q0 41 -12 59q-16 25 -51 25q-32 0 -52 -25q-12 -16 -12 -59v-168h-133v145q0 108 37 160q56 78 164 78q111 0 160 -80q21 -33 26.5 -69t5.5 -89v-90z" />
    <glyph glyph-name="afii10074" unicode="&#x438;" horiz-adv-x="524" 
d="M463 0h-139v446l8 127l-131 -423v-150h-140v1049h140v-455l-11 -109l134 424v140h139v-1049z" />
    <glyph glyph-name="afii10075" unicode="&#x439;" horiz-adv-x="528" 
d="M465 0h-139v446l8 127l-131 -423v-150h-140v1049h140v-455l-10 -109l133 424v140h139v-1049zM342 1434h125q-4 -115 -66 -177q-59 -59 -137 -59t-137 59q-61 63 -66 177h125q0 -49 9 -76q17 -53 71 -53q52 0 68 53q8 31 8 76z" />
    <glyph glyph-name="afii10076" unicode="&#x43a;" horiz-adv-x="507" 
d="M463 369v-273q0 -48 24 -90v-6h-147q-16 56 -16 102v273q0 81 -29 106q-24 19 -64 19h-30v-500h-140v1049h140v-431h61q41 0 41 66v234q0 24 1 37.5t9 33.5t23 33q29 25 92 25h53v-123h-20q-6 0 -10.5 -1t-7 -4t-4.5 -4.5t-2.5 -7t-0.5 -7.5v-9.5v-9.5v-213
q0 -43 -20 -76q-18 -28 -49 -35v-6q42 -21 59 -43q37 -43 37 -139z" />
    <glyph glyph-name="afii10077" unicode="&#x43b;" horiz-adv-x="509" 
d="M449 0h-140v930h-76v-387q0 -194 -10.5 -289.5t-36.5 -149.5q-50 -104 -155 -104h-21v133h25q19 0 33.5 20.5t21.5 47.5q11 43 15 150.5t4 391.5v306h340v-1049z" />
    <glyph glyph-name="afii10078" unicode="&#x43c;" horiz-adv-x="704" 
d="M643 0h-123v696l4 78h-6l-131 -774h-70l-131 774h-6l4 -78v-696h-123v1049h185l98 -623l4 -57h8l4 57l99 623h184v-1049z" />
    <glyph glyph-name="afii10079" unicode="&#x43d;" horiz-adv-x="524" 
d="M463 0h-139v500h-123v-500h-140v1049h140v-431h123v431h139v-1049z" />
    <glyph glyph-name="afii10080" unicode="&#x43e;" horiz-adv-x="520" 
d="M330 846q0 34 -11 59q-18 33 -59 33t-59 -33q-11 -25 -11 -59v-643q0 -35 11 -60q18 -32 59 -32t59 32q11 25 11 60v643zM469 817v-557v-22v-27t-1 -24.5t-2 -27.5l-3.5 -24.5t-6.5 -27t-9.5 -22.5t-12.5 -24q-56 -81 -174 -81t-174 81q-7 11 -12.5 24t-9.5 22.5t-6.5 27
l-3.5 24.5t-2 27.5t-1 24.5v27v22v557v15.5v18t0.5 17.5t1.5 20t2.5 19t4 21t6 19.5t9 20.5t11.5 19q19 30 62 56t112 26t112 -26t62 -56q6 -9 11.5 -19t9 -20.5t6 -19.5t4 -21t2.5 -19t1.5 -20t0.5 -17.5v-18v-15.5z" />
    <glyph glyph-name="afii10081" unicode="&#x43f;" horiz-adv-x="524" 
d="M463 0h-139v930h-123v-930h-140v1049h402v-1049z" />
    <glyph glyph-name="afii10082" unicode="&#x440;" horiz-adv-x="522" 
d="M201 -307h-140v1356h123l17 -48q12 21 41 43q39 25 80 25q99 0 133 -88q16 -46 16 -147v-629q0 -128 -27 -178q-36 -70 -114 -70q-58 0 -94 33q-26 23 -35 51v-348zM332 840q0 53 -10 73q-13 29 -46 29q-42 0 -61 -37q-14 -25 -14 -78v-594q0 -55 12 -92q20 -57 66 -57
q36 0 45 33q8 40 8 102v621z" />
    <glyph glyph-name="afii10083" unicode="&#x441;" horiz-adv-x="501" 
d="M461 401v-159q0 -95 -17 -148q-43 -114 -186 -114q-133 0 -182 110q-25 50 -25 162v534q0 45 1 69t7 57.5t19 56.5q21 40 66 70t110 30q135 0 180 -102q23 -52 23 -201v-121h-140v197q0 47 -10 67q-17 29 -53 29t-53 -29q-11 -17 -11 -67v-625q0 -50 13 -76
q16 -30 55 -30q38 0 53 30q11 22 11 78v182h139z" />
    <glyph glyph-name="afii10084" unicode="&#x442;" horiz-adv-x="466" 
d="M303 0h-139v930h-156v119h451v-119h-156v-930z" />
    <glyph glyph-name="afii10085" unicode="&#x443;" horiz-adv-x="450" 
d="M47 -301v125q23 -6 64 -6q54 0 69 30q3 5 4.5 11t1.5 14v14t-1.5 18t-2.5 19.5t-4 24t-4 26.5l-154 1074h140l67 -740h6l58 740h139l-125 -1176q-9 -92 -43 -135q-43 -53 -121 -53q-53 0 -94 14z" />
    <glyph glyph-name="afii10086" unicode="&#x444;" horiz-adv-x="765" 
d="M453 -307h-140v375q-52 -88 -129 -88q-70 0 -106 67q-27 49 -27 137v682q0 35 1 55t10 50.5t26 52.5q36 45 92 45q33 0 70.5 -23t62.5 -65v375h140v-375q25 42 62.5 65t70.5 23q56 0 92 -45q17 -22 26 -52.5t10 -50.5t1 -55v-682q0 -99 -27 -143q-35 -61 -106 -61
q-77 0 -129 88v-375zM453 827v-555q0 -68 10 -98q17 -51 67 -51q30 0 39 31q6 16 6 92v571q0 69 -8 88q-10 27 -37 27q-37 0 -55 -23q-22 -26 -22 -82zM313 272v555q0 56 -22 82q-18 23 -55 23q-27 0 -37 -27q-9 -21 -9 -88v-571q0 -73 7 -92q9 -31 39 -31q50 0 67 51
q10 30 10 98z" />
    <glyph glyph-name="afii10087" unicode="&#x445;" horiz-adv-x="434" 
d="M217 731l53 318h140l-123 -484l139 -565h-139l-70 369l-70 -369h-139l139 565l-122 484h139z" />
    <glyph glyph-name="afii10088" unicode="&#x446;" horiz-adv-x="536" 
d="M61 0v1044h140v-925h123v928h139v-928h65v-344h-137l6 225h-336z" />
    <glyph glyph-name="afii10089" unicode="&#x447;" horiz-adv-x="503" 
d="M442 0h-139v449h-143q-61 0 -94 57q-13 21 -18.5 48.5t-6 40.5t-0.5 48v406h139v-435q0 -29 10.5 -38t34.5 -9h78v482h139v-1049z" />
    <glyph glyph-name="afii10090" unicode="&#x448;" horiz-adv-x="786" 
d="M725 0h-664v1049h140v-930h123v930h139v-930h123v930h139v-1049z" />
    <glyph glyph-name="afii10091" unicode="&#x449;" horiz-adv-x="811" 
d="M725 1049v-930h78v-344h-119v225h-623v1049h140v-930h123v930h139v-930h123v930h139z" />
    <glyph glyph-name="afii10092" unicode="&#x44a;" horiz-adv-x="581" 
d="M139 0v930h-131v119h271v-428h59q106 0 158 -68q45 -58 45 -178v-152q0 -135 -64 -186q-43 -37 -133 -37h-205zM279 115h40q47 0 64 22q18 21 18 86v144q0 74 -12 98q-20 41 -74 41h-36v-391z" />
    <glyph glyph-name="afii10093" unicode="&#x44b;" horiz-adv-x="704" 
d="M643 0h-139v1049h139v-1049zM61 0v1049h140v-428h59q106 0 158 -68q45 -58 45 -178v-152q0 -135 -64 -186q-43 -37 -133 -37h-205zM201 115h41q46 0 63 22q19 22 19 86v144q0 72 -13 98q-20 41 -73 41h-37v-391z" />
    <glyph glyph-name="afii10094" unicode="&#x44c;" horiz-adv-x="503" 
d="M61 0v1049h140v-428h59q106 0 158 -68q45 -58 45 -178v-152q0 -135 -64 -186q-43 -37 -133 -37h-205zM201 115h41q46 0 63 22q19 22 19 86v144q0 72 -13 98q-20 41 -73 41h-37v-391z" />
    <glyph glyph-name="afii10095" unicode="&#x44d;" horiz-adv-x="503" 
d="M453 262q0 -130 -21 -182q-17 -41 -60.5 -70.5t-121.5 -29.5q-132 0 -178 102q-25 56 -25 201v120h139v-196q0 -43 9 -64q13 -32 55 -32q43 0 55 32q8 21 8 66v274h-178v119h178v229q0 56 -10 76q-16 31 -53 31q-38 0 -53 -31q-11 -22 -11 -76v-167h-139v143q0 99 19 147
q44 115 184 115q66 0 112.5 -30t67.5 -81q23 -62 23 -161v-535z" />
    <glyph glyph-name="afii10096" unicode="&#x44e;" horiz-adv-x="749" 
d="M201 618h80v170q0 4 -0.5 35t0.5 43.5t3.5 38t10.5 45t20 37.5q55 82 174 82q120 0 175 -82q12 -18 20 -37.5t10.5 -45t3.5 -38t0.5 -43.5t-0.5 -35v-528q0 -4 0.5 -35t-0.5 -43.5t-3.5 -38t-10.5 -45t-20 -37.5q-20 -30 -62.5 -55.5t-112.5 -25.5q-120 0 -174 81
q-12 18 -20 37.5t-10.5 45t-3.5 38t-0.5 43.5t0.5 35v240h-80v-500h-140v1049h140v-431zM559 846q0 36 -10 59q-18 33 -60 33q-41 0 -59 -33q-10 -23 -10 -59v-643q0 -38 10 -60q18 -32 59 -32q42 0 60 32q10 22 10 60v643z" />
    <glyph glyph-name="afii10097" unicode="&#x44f;" horiz-adv-x="518" 
d="M457 0h-140v477h-30q-84 0 -84 -115v-247q0 -68 -21 -115h-151v4q15 26 22 55q10 40 10 105v174q0 83 19 125q18 43 68 65q-46 14 -74 56q-29 46 -29 141v117q0 101 47 151q52 56 185 56h178v-1049zM317 596v334h-43q-63 0 -79 -39q-9 -18 -9 -68v-104q0 -65 17 -90
q9 -14 31.5 -23.5t46.5 -9.5h36z" />
    <glyph glyph-name="afii10071" unicode="&#x451;" horiz-adv-x="503" 
d="M442 1257h-139v177h139v-177zM201 1257h-140v177h140v-177zM453 391v-182q0 -105 -37 -160q-48 -69 -156 -69q-105 0 -160 67q-49 59 -49 189v579q0 47 1 68.5t12 57.5t34 63q55 65 154 65t154 -65q23 -27 34 -63t12 -57.5t1 -68.5v-319h-263v-281q0 -61 13 -78
q16 -26 53 -26t53 26q13 26 13 80v174h131zM313 614v234q0 51 -14 70q-15 20 -47 20t-47 -20t-15 -70v-234h123z" />
    <glyph glyph-name="afii10099" unicode="&#x452;" horiz-adv-x="532" 
d="M201 0h-140v1204h-122v119h122v111h140v-111h157v-119h-157v-207q19 24 47 43q47 29 96 29q70 0 102 -68q25 -52 25 -170v-899q0 -107 -8 -141q-10 -41 -37 -70q-35 -40 -96 -40q-49 0 -69.5 3t-49.5 17v123q38 -21 70 -21q19 0 28 9q23 16 23 112v873q0 88 -8 104
q-12 35 -52 35q-42 0 -59 -43q-12 -30 -12 -72v-821z" />
    <glyph glyph-name="afii10100" unicode="&#x453;" horiz-adv-x="417" 
d="M201 0h-140v1049h336v-119h-196v-930zM174 1135l-39 36l211 312l119 -115z" />
    <glyph glyph-name="afii10101" unicode="&#x454;" horiz-adv-x="497" 
d="M51 262v535q0 99 23 161q21 51 67.5 81t112.5 30q140 0 184 -115q19 -48 19 -147v-143h-140v167q0 56 -10 76q-15 31 -53 31q-37 0 -53 -31q-11 -22 -11 -76v-229h179v-119h-179v-274q0 -42 9 -66q12 -32 55 -32q42 0 55 32q8 19 8 64v196h140v-120q0 -145 -25 -201
q-46 -102 -178 -102q-78 0 -121.5 29.5t-60.5 70.5q-21 52 -21 182z" />
    <glyph glyph-name="afii10102" unicode="&#x455;" horiz-adv-x="479" 
d="M31 381h139v-168q0 -51 14 -76q17 -26 58 -26q23 0 34.5 6.5t20.5 25.5q12 24 12 90q0 76 -6.5 113.5t-28.5 65.5l-133 172q-4 6 -13 17t-14 18t-12.5 18t-14.5 24t-15 29q-35 71 -35 154q0 56 22 110q17 41 56 72q57 43 133 43q89 0 139 -57q55 -60 55 -207v-76h-127
v119q0 48 -18 70q-20 20 -51 20q-35 0 -53 -27q-17 -28 -17 -69q0 -42 9 -71.5t40 -68.5l146 -184q41 -53 59.5 -111t18.5 -147q0 -115 -31 -176q-27 -56 -74 -80q-44 -24 -108 -24q-46 0 -91 18q-39 17 -73 70q-41 65 -41 180v133z" />
    <glyph glyph-name="afii10103" unicode="&#x456;" horiz-adv-x="262" 
d="M201 0h-140v1049h140v-1049zM201 1229h-140v205h140v-205z" />
    <glyph glyph-name="afii10104" unicode="&#x457;" horiz-adv-x="360" 
d="M250 0h-139v1049h139v-1049zM143 1257h-123v177h123v-177zM340 1257h-123v177h123v-177z" />
    <glyph glyph-name="afii10105" unicode="&#x458;" horiz-adv-x="262" 
d="M-31 -307v123h49q13 0 22 5.5t13 11t6 18.5t2 17.5v18.5v1162h140v-1131q0 -103 -10 -137q-6 -17 -13 -29q-34 -59 -117 -59h-92zM201 1229h-140v205h140v-205z" />
    <glyph glyph-name="afii10106" unicode="&#x459;" horiz-adv-x="761" 
d="M319 0v930h-75v-387q0 -194 -10.5 -289.5t-36.5 -149.5q-50 -104 -156 -104h-21v135l25 -2q19 -1 33.5 20t21.5 48q15 57 17 198q2 123 2 344v306h340v-428h59q106 0 158 -68q45 -58 45 -178v-152q0 -135 -64 -186q-43 -37 -133 -37h-205zM459 115h41q46 0 63 22
q19 22 19 86v144q0 72 -13 98q-20 41 -73 41h-37v-391z" />
    <glyph glyph-name="afii10107" unicode="&#x45a;" horiz-adv-x="765" 
d="M324 0v500h-123v-500h-140v1049h140v-431h123v431h139v-428h59q106 0 158 -68q45 -58 45 -178v-152q0 -136 -63 -186q-43 -37 -134 -37h-204zM463 115h41q46 0 63 22q19 22 19 86v144q0 72 -13 98q-20 41 -73 41h-37v-391z" />
    <glyph glyph-name="afii10108" unicode="&#x45b;" horiz-adv-x="532" 
d="M201 0h-140v1204h-122v119h122v111h140v-111h157v-119h-157v-207q19 24 47 43q47 29 96 29q70 0 102 -68q25 -52 25 -170v-831h-139v797q0 88 -8 104q-12 35 -52 35q-42 0 -59 -43q-12 -30 -12 -72v-821z" />
    <glyph glyph-name="afii10109" unicode="&#x45c;" horiz-adv-x="507" 
d="M463 369v-273q0 -48 24 -90v-6h-147q-16 56 -16 102v273q0 81 -29 106q-24 19 -64 19h-30v-500h-140v1049h140v-431h61q41 0 41 66v234q0 24 1 37.5t9 33.5t23 33q29 25 92 25h53v-123h-20q-6 0 -10.5 -1t-7 -4t-4.5 -4.5t-2.5 -7t-0.5 -7.5v-9.5v-9.5v-213
q0 -43 -20 -76q-18 -28 -49 -35v-6q42 -21 59 -43q37 -43 37 -139zM236 1135l-39 36l211 312l118 -115z" />
    <glyph glyph-name="afii10110" unicode="&#x45e;" horiz-adv-x="450" 
d="M301 1434h123q3 -107 -64 -177q-57 -57 -137 -59q-80 2 -137 59q-66 69 -63 177h122q0 -49 9 -76q15 -50 71 -53q52 0 68 53q8 24 8 76zM47 -301v125q23 -6 64 -6q54 0 69 30q3 5 4.5 11t1.5 14v14t-1.5 18t-2.5 19.5t-4 24t-4 26.5l-154 1074h140l67 -740h6l58 740h139
l-125 -1176q-9 -92 -43 -135q-43 -53 -121 -53q-53 0 -94 14z" />
    <glyph glyph-name="afii10193" unicode="&#x45f;" horiz-adv-x="524" 
d="M61 1049h140v-930h123v930h139v-1049h-137v-225h-127v225h-138v1049z" />
    <glyph glyph-name="afii10050" unicode="&#x490;" horiz-adv-x="485" 
d="M231 0h-159v1434h268v225h137v-377h-246v-1282z" />
    <glyph glyph-name="afii10098" unicode="&#x491;" horiz-adv-x="417" 
d="M201 0h-140v1049h218v186h118v-305h-196v-930z" />
    <glyph glyph-name="endash" unicode="&#x2013;" horiz-adv-x="667" 
d="M20 483v127h627v-127h-627z" />
    <glyph glyph-name="emdash" unicode="&#x2014;" horiz-adv-x="991" 
d="M20 483v127h951v-127h-951z" />
    <glyph glyph-name="quoteleft" unicode="&#x2018;" horiz-adv-x="284" 
d="M150 1434h73l-67 -271h63v-245h-158v264z" />
    <glyph glyph-name="quoteright" unicode="&#x2019;" horiz-adv-x="284" 
d="M135 918h-74l68 270h-63v246h157v-265z" />
    <glyph glyph-name="quotedblleft" unicode="&#x201c;" horiz-adv-x="491" 
d="M356 1434h74l-68 -271h64v-245h-158v264zM150 1434h73l-67 -271h63v-245h-158v264z" />
    <glyph glyph-name="quotedblright" unicode="&#x201d;" horiz-adv-x="491" 
d="M135 918h-74l68 270h-63v246h157v-265zM342 918h-74l68 270h-64v246h158v-265z" />
    <glyph glyph-name="quotedblbase" unicode="&#x201e;" horiz-adv-x="491" 
d="M135 -270h-74l68 270h-63v246h157v-264zM342 -270h-74l68 270h-64v246h158v-264z" />
    <glyph glyph-name="dagger" unicode="&#x2020;" horiz-adv-x="589" 
d="M369 -338h-148v1233h-190v147h190v392h148v-392h190v-147h-190v-1233z" />
    <glyph glyph-name="bullet" unicode="&#x2022;" horiz-adv-x="462" 
d="M231 598q-72 0 -118 51q-52 61 -52 164q0 108 52 166q46 53 118 53t119 -53q51 -58 51 -166q0 -104 -51 -164q-44 -51 -119 -51z" />
    <glyph glyph-name="ellipsis" unicode="&#x2026;" horiz-adv-x="778" 
d="M61 0v246h160v-246h-160zM309 0v246h160v-246h-160zM557 0v246h160v-246h-160z" />
    <glyph glyph-name="Euro" unicode="&#x20ac;" horiz-adv-x="622" 
d="M569 1415v-151q-37 43 -125 43q-81 0 -118.5 -95t-42.5 -288h237l-26 -127h-218v-78v-74h185l-29 -127h-149q4 -205 44.5 -298t114.5 -93q87 0 127 43v-156q-40 -32 -157 -32q-84 0 -141 51t-93 171.5t-45 313.5h-100l26 127h64q-2 18 -2 74q0 51 2 78h-90l26 127h72
q12 268 82.5 399t202.5 131q110 0 153 -39z" />
    <glyph glyph-name="afii61352" unicode="&#x2116;" horiz-adv-x="1116" 
d="M625 0h-158l-227 1083l14 -241v-580q0 -111 -23 -164q-43 -98 -143 -98h-78v152h47q27 0 45 18q19 21 19 76v1188h158l221 -1002l-8 230v530q0 125 32 176q41 66 121 66h105v-152h-76q-18 0 -33.5 -14.5t-15.5 -53.5v-1214zM725 0v150h319v-150h-319zM1065 725v-176
q0 -144 -37 -203q-50 -80 -141 -80q-94 0 -144 80q-36 58 -36 203v176q0 145 36 203q50 80 144 80q91 0 141 -80q37 -59 37 -203zM938 475v324q0 41 -8 57q-15 25 -43 25q-33 0 -45 -25q-8 -16 -8 -57v-324q0 -41 8 -57q12 -25 45 -25q28 0 43 25q8 16 8 57z" />
    <glyph glyph-name="trademark" unicode="&#x2122;" horiz-adv-x="630" 
d="M158 922h-76v436h-74v76h221v-76h-71v-436zM569 922h-75v415h-5l-49 -415h-59l-49 415h-4v-415h-74v512h125l33 -312l32 312h125v-512z" />
    <glyph glyph-name="radical" unicode="&#x221a;" horiz-adv-x="845" 
d="M559 1432h277v-86h-185l-233 -1346h-131l-131 768h-146v86h238l100 -682z" />
    <glyph glyph-name="infinity" unicode="&#x221e;" horiz-adv-x="1101" 
d="M139 872q33 33 67 42.5t79 9.5h104q47 0 90 -23.5t72 -60.5q29 37 72 60.5t90 23.5h104q45 0 79 -9.5t67 -42.5q57 -57 57 -163q0 -107 -57 -164q-33 -33 -66.5 -42t-79.5 -9h-104q-45 0 -89 22.5t-73 56.5q-66 -79 -162 -79h-104q-30 0 -49 2t-46.5 14t-50.5 35
q-57 57 -57 164q0 106 57 163zM401 811h-131q-33 0 -53 -25q-22 -28 -22 -77q0 -50 22 -78q20 -25 53 -25h131q37 0 64 31q20 23 20 72q0 48 -20 71q-27 31 -64 31zM831 811h-129q-18 0 -38 -11.5t-31 -25.5q-19 -24 -19 -65q0 -40 23 -72q25 -31 63 -31h131q34 0 54 25
q22 27 22 78q0 49 -22 77q-20 25 -54 25z" />
    <glyph glyph-name="approxequal" unicode="&#x2248;" 
d="M86 418v127q41 60 109 92q49 22 102 22q13 0 26 -3.5t19 -6t21 -10.5t18 -10l131 -72q38 -20 76 -20q24 0 94 45l80 55v-127q-41 -32 -98 -61q-56 -29 -86 -29q-41 0 -66 10q-21 7 -68 33l-110 59q-40 17 -70 17q-40 0 -82 -27q-51 -34 -96 -94zM78 717v127q40 58 110 92
q53 22 101 22q32 0 86 -30l129 -72q30 -18 78 -18q33 0 94 43l78 55v-127q-42 -34 -97 -61q-63 -29 -86 -29q-41 0 -67 10q-42 17 -68 33l-108 59q-35 17 -68 17q-42 0 -86 -27q-45 -29 -96 -94z" />
    <glyph glyph-name="notequal" unicode="&#x2260;" 
d="M303 207h-86l96 305h-231v123h268l53 178h-321v123h352l86 276h84l-84 -276h238v-123h-271l-51 -178h322v-123h-361z" />
    <glyph glyph-name="lessequal" unicode="&#x2264;" 
d="M758 166v-123l-676 367v122zM758 434v-123l-676 367v57l676 367v-123l-506 -268z" />
    <glyph glyph-name="greaterequal" unicode="&#x2265;" 
d="M82 166v-123l676 367v122zM82 434v-123l676 367v57l-676 367v-123l506 -268z" />
    <glyph glyph-name="Acute" unicode="&#xf6c9;" horiz-adv-x="440" 
d="M53 1503l-22 49l305 224l72 -152z" />
    <glyph glyph-name="Dieresis" unicode="&#xf6cb;" horiz-adv-x="440" 
d="M31 1593v168h145v-168h-145zM264 1593v168h146v-168h-146z" />
    <glyph glyph-name="cyrBreve" unicode="&#xf6d1;" horiz-adv-x="440" 
d="M408 1679q0 -90 -56 -141q-52 -49 -133 -49t-133 49q-55 50 -55 141h123q0 -40 8 -53q6 -14 22.5 -24.5t34.5 -10.5t34.5 10.5t22.5 24.5q9 15 9 53h123z" />
    <glyph glyph-name="cyrbreve" unicode="&#xf6d4;" horiz-adv-x="440" 
d="M297 1434h123q3 -107 -64 -177q-57 -57 -137 -59q-80 2 -137 59q-67 70 -64 177h123q0 -49 9 -76q15 -50 71 -53q52 0 68 53q8 24 8 76z" />
    <glyph glyph-name="nbspace" horiz-adv-x="477" 
 />
    </font>
</defs>
</svg>
